<?xml version="1.0" encoding="UTF-8"?>
<svg version="1.1" xmlns="http://www.w3.org/2000/svg" width="452" height="332">
<path d="M0 0 C1.06605469 0.57621094 2.13210938 1.15242188 3.23046875 1.74609375 C14.5766096 8.10169399 24.58775832 16.06397293 34 25 C34.50144531 25.46889648 35.00289063 25.93779297 35.51953125 26.42089844 C67.29246661 56.2805001 82.71920826 97.3237271 85.1875 140.26171875 C86.16459926 184.0479795 67.77468694 225.58495658 38 257 C9.64618096 286.35070192 -30.71079822 304.0532564 -71.48828125 305.203125 C-114.83615834 305.7808498 -156.57556532 291.97966059 -188.23828125 261.69921875 C-189.60533203 260.36310547 -189.60533203 260.36310547 -191 259 C-191.92167969 258.14019531 -192.84335938 257.28039062 -193.79296875 256.39453125 C-221.67999901 229.76615398 -239.27713022 189.27582822 -240.203125 150.796875 C-240.73008784 103.19118755 -225.41156073 62.90475771 -193 28 C-192.46117187 27.40703125 -191.92234375 26.8140625 -191.3671875 26.203125 C-172.00740314 5.77320181 -144.87914968 -7.7822998 -118 -15 C-117.24960449 -15.21172852 -116.49920898 -15.42345703 -115.72607422 -15.64160156 C-77.65688159 -26.01588813 -34.10796012 -18.82179973 0 0 Z M-180 27 C-180.54253418 27.45745605 -181.08506836 27.91491211 -181.64404297 28.38623047 C-194.212063 39.12563861 -203.88186145 51.59852606 -212 66 C-212.59425781 67.051875 -213.18851563 68.10375 -213.80078125 69.1875 C-233.27875543 105.81127407 -236.24355756 151.10759395 -224.47192383 190.61108398 C-221.91978801 198.69065153 -218.73522246 206.40075431 -215 214 C-214.45601562 215.11632812 -213.91203125 216.23265625 -213.3515625 217.3828125 C-196.47384074 250.26663658 -167.16580949 273.55066684 -132.6875 286.0625 C-128.67508716 287.1378335 -128.67508716 287.1378335 -125 286 C-103.78400179 267.28459827 -86.25851029 236.0318224 -83.71875 207.8828125 C-83.00387258 185.42374702 -94.8472744 165.93460518 -107 148 C-122.85966831 124.55461767 -132.83158975 101.62147384 -127.54663086 72.67138672 C-121.24115676 42.0663504 -100.97691361 11.90286661 -75.3984375 -5.94140625 C-74.93695313 -6.29074219 -74.47546875 -6.64007813 -74 -7 C-74 -7.33 -74 -7.66 -74 -8 C-112.3393079 -9.26393323 -150.48773517 1.99592222 -180 27 Z M-73.12890625 -6.59375 C-86.21181245 12.51370973 -93.48219329 33.35280905 -90.5390625 56.6484375 C-86.28821269 77.30256658 -72.10152084 93.47506204 -55 105 C-54.34 104.67 -53.68 104.34 -53 104 C-53.96099609 103.09121094 -53.96099609 103.09121094 -54.94140625 102.1640625 C-68.7809467 88.75765223 -81.56307831 69.85972738 -82.46850586 50.00415039 C-82.66204032 37.30438905 -78.7989831 27.90207966 -71 18 C-71 20 -71 20 -71.48510742 22.32226562 C-74.77457185 39.42935234 -71.59418301 56.53292495 -62 71 C-56.72535553 78.18345585 -50.23031104 83.27182089 -43.09643555 88.45751953 C-36.59773424 93.20173161 -30.79836518 98.42464887 -25 104 C-24.34773438 104.58910156 -23.69546875 105.17820312 -23.0234375 105.78515625 C-9.77355893 118.09725803 -1.2971224 135.74078889 -0.5625 153.8125 C-1.64245053 186.68619417 -27.42799804 215.56725902 -49.87060547 237.03173828 C-54.45361494 241.26794814 -59.34913603 245.05589928 -64.35888672 248.76904297 C-65.98262391 249.98696664 -67.57404411 251.23748328 -69.16015625 252.50390625 C-85.86407237 265.78510128 -104.57233192 276.32773786 -123 287 C-122.67 287.66 -122.34 288.32 -122 289 C-120.14039095 289.63967603 -120.14039095 289.63967603 -117.87890625 290.03515625 C-117.02490234 290.20466797 -116.17089844 290.37417969 -115.29101562 290.54882812 C-114.39060547 290.71833984 -113.49019531 290.88785156 -112.5625 291.0625 C-111.69689453 291.23587891 -110.83128906 291.40925781 -109.93945312 291.58789062 C-68.05027035 299.72867745 -22.93024396 292.24159137 13 269 C43.80457834 247.88267418 64.42906187 216.18840543 73 180 C73.45052734 178.10121094 73.45052734 178.10121094 73.91015625 176.1640625 C78.78948686 152.68159556 78.03931694 125.12509361 72 102 C71.7745752 101.13487793 71.54915039 100.26975586 71.31689453 99.37841797 C66.08048529 80.21380003 57.0086955 61.11757328 44 46 C43.26136719 45.13632813 42.52273438 44.27265625 41.76171875 43.3828125 C39.55416396 40.8740542 37.29344702 38.43024912 35 36 C34.32710937 35.26265625 33.65421875 34.5253125 32.9609375 33.765625 C7.73722535 7.12485037 -30.77886593 -6.81826103 -66.89453125 -8.29296875 C-69.72475903 -8.2417415 -70.72323128 -8.1828197 -73.12890625 -6.59375 Z " fill="#FCFDFD" transform="translate(305,22)"/>
<path d="M0 0 C1.06605469 0.57621094 2.13210938 1.15242188 3.23046875 1.74609375 C14.5766096 8.10169399 24.58775832 16.06397293 34 25 C34.50144531 25.46889648 35.00289063 25.93779297 35.51953125 26.42089844 C67.29246661 56.2805001 82.71920826 97.3237271 85.1875 140.26171875 C86.16459926 184.0479795 67.77468694 225.58495658 38 257 C9.64618096 286.35070192 -30.71079822 304.0532564 -71.48828125 305.203125 C-114.83615834 305.7808498 -156.57556532 291.97966059 -188.23828125 261.69921875 C-189.60533203 260.36310547 -189.60533203 260.36310547 -191 259 C-191.92167969 258.14019531 -192.84335938 257.28039062 -193.79296875 256.39453125 C-221.67999901 229.76615398 -239.27713022 189.27582822 -240.203125 150.796875 C-240.73008784 103.19118755 -225.41156073 62.90475771 -193 28 C-192.46117187 27.40703125 -191.92234375 26.8140625 -191.3671875 26.203125 C-172.00740314 5.77320181 -144.87914968 -7.7822998 -118 -15 C-117.24960449 -15.21172852 -116.49920898 -15.42345703 -115.72607422 -15.64160156 C-77.65688159 -26.01588813 -34.10796012 -18.82179973 0 0 Z M-180 27 C-180.54253418 27.45745605 -181.08506836 27.91491211 -181.64404297 28.38623047 C-194.212063 39.12563861 -203.88186145 51.59852606 -212 66 C-212.59425781 67.051875 -213.18851563 68.10375 -213.80078125 69.1875 C-233.27875543 105.81127407 -236.24355756 151.10759395 -224.47192383 190.61108398 C-221.91978801 198.69065153 -218.73522246 206.40075431 -215 214 C-214.45601562 215.11632812 -213.91203125 216.23265625 -213.3515625 217.3828125 C-196.47384074 250.26663658 -167.16580949 273.55066684 -132.6875 286.0625 C-129.18422926 286.95316205 -128.21393466 287.12253851 -125 286 C-123.26973898 284.52109931 -123.26973898 284.52109931 -122 283 C-121.34 283.66 -120.68 284.32 -120 285 C-120.99 285.99 -121.98 286.98 -123 288 C-87.17150275 301.13550394 -41.54174613 295.82401213 -7.32421875 280.09619141 C29.97866963 262.33888007 55.10317636 232.57924174 69 194 C70.57518226 189.37590562 71.8742003 184.75337651 73 180 C73.45052734 178.10121094 73.45052734 178.10121094 73.91015625 176.1640625 C78.78948686 152.68159556 78.03931694 125.12509361 72 102 C71.7745752 101.13487793 71.54915039 100.26975586 71.31689453 99.37841797 C66.08048529 80.21380003 57.0086955 61.11757328 44 46 C42.89205078 44.70449219 42.89205078 44.70449219 41.76171875 43.3828125 C39.55416396 40.8740542 37.29344702 38.43024912 35 36 C34.32710938 35.26265625 33.65421875 34.5253125 32.9609375 33.765625 C7.88299604 7.27881042 -30.94888698 -7.18358959 -66.96875 -8.23046875 C-69.10012556 -8.34918698 -69.10012556 -8.34918698 -71 -8 C-73.40406384 -5.62157423 -73.40406384 -5.62157423 -75 -3 C-75.99 -3 -76.98 -3 -78 -3 C-80.49313448 -0.92530157 -80.49313448 -0.92530157 -83.10546875 1.8125 C-83.5895369 2.30081299 -84.07360504 2.78912598 -84.57234192 3.29223633 C-86.1179014 4.85459826 -87.65271107 6.42706327 -89.1875 8 C-90.23303282 9.06057762 -91.27924873 10.12048229 -92.32617188 11.1796875 C-94.89208902 13.77869434 -97.44846467 16.3868639 -100 19 C-98.61154304 15.87575637 -96.99374637 13.73704154 -94.5859375 11.3203125 C-93.90660156 10.63839844 -93.22726563 9.95648437 -92.52734375 9.25390625 C-91.46193359 8.20009766 -91.46193359 8.20009766 -90.375 7.125 C-89.68792969 6.43019531 -89.00085938 5.73539063 -88.29296875 5.01953125 C-84.24975338 0.99148742 -80.11620916 -2.57734316 -75.45556641 -5.87548828 C-74.97522949 -6.24657715 -74.49489258 -6.61766602 -74 -7 C-74 -7.33 -74 -7.66 -74 -8 C-112.3393079 -9.26393323 -150.48773517 1.99592222 -180 27 Z " fill="#F3F5F7" transform="translate(305,22)"/>
<path d="M0 0 C7.26 0 14.52 0 22 0 C22 0.33 22 0.66 22 1 C20.948125 1.061875 19.89625 1.12375 18.8125 1.1875 C14.3441853 2.13976379 12.98894713 3.66945892 10 7 C9.34 7 8.68 7 8 7 C6.27826776 8.5477254 4.61984882 10.16612993 2.9921875 11.8125 C2.50670441 12.30081299 2.02122131 12.78912598 1.52102661 13.29223633 C-0.03239131 14.85687218 -1.57872219 16.42831049 -3.125 18 C-4.17532261 19.06035033 -5.22609822 20.12025215 -6.27734375 21.1796875 C-8.85684416 23.78126956 -11.43003137 26.38899773 -14 29 C-14.66 28.67 -15.32 28.34 -16 28 C1.415 8.177 1.415 8.177 11 2 C5.555 1.505 5.555 1.505 0 1 C0 0.67 0 0.34 0 0 Z " fill="#E0E6EC" transform="translate(219,13)"/>
<path d="M0 0 C0.33 0.66 0.66 1.32 1 2 C1.99 2.33 2.98 2.66 4 3 C2.68 3.99 1.36 4.98 0 6 C11.385 8.475 11.385 8.475 23 11 C19.33574952 11.91606262 18.13418525 12.05531166 14.65625 11.36328125 C13.82706055 11.19989258 12.99787109 11.03650391 12.14355469 10.86816406 C10.83499512 10.59311035 10.83499512 10.59311035 9.5 10.3125 C8.60958008 10.13041992 7.71916016 9.94833984 6.80175781 9.76074219 C0.0026248 8.32298573 -6.50101345 6.48335259 -13 4 C-10 3 -10 3 -7.0625 3.6875 C-6.051875 3.790625 -5.04125 3.89375 -4 4 C-1.60204619 2.18712805 -1.60204619 2.18712805 0 0 Z " fill="#DFE5EB" transform="translate(183,304)"/>
<path d="M0 0 C7.26 0 14.52 0 22 0 C22 0.33 22 0.66 22 1 C20.4221875 1.0928125 20.4221875 1.0928125 18.8125 1.1875 C14.32220902 2.14444726 13.12230107 3.79331241 10 7 C7.6875 6.8125 7.6875 6.8125 6 6 C7.65 4.68 9.3 3.36 11 2 C7.37 1.67 3.74 1.34 0 1 C0 0.67 0 0.34 0 0 Z " fill="#D8E0E8" transform="translate(219,13)"/>
<path d="M0 0 C1 2 1 2 0.375 4.5 C-1 7 -1 7 -3.625 8.3125 C-4.40875 8.539375 -5.1925 8.76625 -6 9 C-4.68775452 5.06326356 -3.08089673 2.77280706 0 0 Z " fill="#DDE4EB" transform="translate(235,38)"/>
</svg>
