<?xml version="1.0" encoding="UTF-8"?>
<svg version="1.1" xmlns="http://www.w3.org/2000/svg" width="452" height="332">
<path d="M0 0 C8.25 0 16.5 0 25 0 C25.061875 3.96 25.12375 7.92 25.1875 12 C25.21481201 13.23234375 25.24212402 14.4646875 25.27026367 15.734375 C25.34342672 25.45168606 23.66448335 31.79515313 17 39 C17.94875 39.721875 18.8975 40.44375 19.875 41.1875 C22.67412562 43.49809898 23.98517558 45.44811452 25 49 C26.83209899 43.91284258 28.00332158 38.79103636 29.12890625 33.515625 C29.32346909 32.61882019 29.51803192 31.72201538 29.7184906 30.79803467 C30.33630752 27.94935956 30.94983659 25.09978758 31.5625 22.25 C32.17896262 19.3859824 32.79641661 16.52219843 33.41722107 13.65911865 C33.80268261 11.88123759 34.18562428 10.10280797 34.56581116 8.3237915 C35.88744965 2.2251007 35.88744965 2.2251007 37 0 C43.27 0 49.54 0 56 0 C58.91300523 11.42485997 61.61108766 22.88024263 64.14697266 34.39453125 C64.75721111 37.15765142 65.37663033 39.91862275 65.99609375 42.6796875 C66.38858313 44.45560499 66.78053057 46.23164236 67.171875 48.0078125 C67.3561908 48.82347687 67.54050659 49.63914124 67.73040771 50.47952271 C67.89768372 51.24827728 68.06495972 52.01703186 68.23730469 52.80908203 C68.3851239 53.47585968 68.53294312 54.14263733 68.6852417 54.82962036 C69.07641103 57.52688348 69 60.27451989 69 63 C64.05 63 59.1 63 54 63 C52.86235649 58.73383684 52 55.43513689 52 51 C48.37 51 44.74 51 41 51 C40.855625 52.2375 40.71125 53.475 40.5625 54.75 C40.2271044 57.62481941 39.70982076 60.16071698 39 63 C34.05 63 29.1 63 24 63 C23 61 23 61 23 58 C22.401875 58.639375 21.80375 59.27875 21.1875 59.9375 C17.8053364 63.12639711 14.62952478 63.3394837 10.06640625 63.2890625 C6.6849206 62.81603804 4.57333916 61.1444493 2 59 C-0.16721782 55.74917327 -0.27221018 54.70767847 -0.25 50.9375 C-0.25515625 50.05964844 -0.2603125 49.18179688 -0.265625 48.27734375 C0 46 0 46 2 44 C1.34 43.67 0.68 43.34 0 43 C0 35.41 0 27.82 0 20 C3.465 19.505 3.465 19.505 7 19 C6.175 18.05125 5.35 17.1025 4.5 16.125 C2 13.25 2 13.25 2 11 C1.34 11 0.68 11 0 11 C0 7.37 0 3.74 0 0 Z M4 5 C5.92088742 11.29624208 7.53465186 14.28356327 13 18 C15.55721737 19.42557356 15.55721737 19.42557356 18 20 C18.99 19.67 19.98 19.34 21 19 C20.67 14.38 20.34 9.76 20 5 C14.72 5 9.44 5 4 5 Z M4 24 C4 28.95 4 33.9 4 39 C10.37932527 37.93677912 13.57980772 36.57631386 18 32 C19.44670635 29.32287231 20.18303317 26.96150477 21 24 C15.39 24 9.78 24 4 24 Z M46 27 C45.34 30.3 44.68 33.6 44 37 C45.65 37 47.3 37 49 37 C48.87625 35.72125 48.7525 34.4425 48.625 33.125 C48.55539063 32.40570313 48.48578125 31.68640625 48.4140625 30.9453125 C48.13625251 28.77331755 48.13625251 28.77331755 46 27 Z M6 46 C3.65477065 48.88512978 3.65477065 48.88512978 4.125 52.5 C4.70894662 55.96202048 4.70894662 55.96202048 6.6875 57.9375 C9.75283164 59.34589562 11.65595685 59.47772045 15 59 C18.00979883 57.65884601 18.00979883 57.65884601 20 55 C20.7501664 51.48271037 20.72677685 48.25167124 18.875 45.0625 C13.93254067 42.26177305 10.43220663 42.55272817 6 46 Z " fill="#FDFDFD" transform="translate(17,94)"/>
<path d="M0 0 C28.68476277 0 28.68476277 0 36.5234375 7.35546875 C41.50638482 12.90525928 41.46601747 18.72927642 41.29296875 25.8984375 C40.9088786 29.9646719 40.06293116 32.48537654 38 36 C37.44699219 36.44214844 36.89398438 36.88429687 36.32421875 37.33984375 C34.70284088 38.97489645 34.70284088 38.97489645 35.2578125 41.49609375 C35.54398437 42.46675781 35.83015625 43.43742187 36.125 44.4375 C36.57166016 46.02111328 36.57166016 46.02111328 37.02734375 47.63671875 C37.34832031 48.74660156 37.66929687 49.85648438 38 51 C38.57145961 53.24774113 39.13443487 55.49766228 39.6875 57.75 C40.120625 59.4825 40.55375 61.215 41 63 C35.72 63 30.44 63 25 63 C24.16320723 60.37605694 23.33043058 57.75095616 22.5 55.125 C22.26152344 54.37863281 22.02304687 53.63226563 21.77734375 52.86328125 C20 47.2265625 20 47.2265625 20 45 C17.525 45.495 17.525 45.495 15 46 C15 51.61 15 57.22 15 63 C10.05 63 5.1 63 0 63 C0 42.21 0 21.42 0 0 Z M15 15 C15 20.28 15 25.56 15 31 C16.44375 30.896875 17.8875 30.79375 19.375 30.6875 C20.18710937 30.62949219 20.99921875 30.57148438 21.8359375 30.51171875 C24.37921338 30.17009472 24.37921338 30.17009472 26 27 C26.3157994 24.81813053 26.3157994 24.81813053 26.25 22.5 C26.25515625 21.7265625 26.2603125 20.953125 26.265625 20.15625 C26.12738062 17.70486156 26.12738062 17.70486156 24 15 C20.47422385 13.54105815 19.05650648 14.1886987 15 15 Z " fill="#FDFEFD" transform="translate(298,170)"/>
<path d="M0 0 C1.05638672 -0.03738281 2.11277344 -0.07476562 3.20117188 -0.11328125 C11.85538682 -0.20926145 18.75265417 1.66040032 25.0625 7.8125 C29.14456003 14.78601921 28.90271088 21.81003761 28.87817383 29.6328125 C28.87501873 31.73750874 28.89849318 33.84079001 28.92382812 35.9453125 C28.99827554 51.15762623 28.99827554 51.15762623 23.9140625 57.3984375 C23.34429687 57.84445313 22.77453125 58.29046875 22.1875 58.75 C21.62289062 59.21148437 21.05828125 59.67296875 20.4765625 60.1484375 C16.15080626 62.92045272 12.49206001 63.62061143 7.38671875 63.5703125 C6.22978516 63.56386719 5.07285156 63.55742187 3.88085938 63.55078125 C2.68267578 63.53402344 1.48449219 63.51726562 0.25 63.5 C-0.96751953 63.49097656 -2.18503906 63.48195312 -3.43945312 63.47265625 C-6.43900274 63.44913037 -9.43815044 63.41625653 -12.4375 63.375 C-12.46062737 55.30847826 -12.47841709 47.24197028 -12.48931217 39.17542362 C-12.49454014 35.43016963 -12.50163622 31.68493824 -12.51293945 27.93969727 C-12.52377141 24.32818313 -12.52977749 20.71669079 -12.53237724 17.10516167 C-12.53423094 15.72439671 -12.53785049 14.343633 -12.54323006 12.96287727 C-12.55044447 11.03524048 -12.55090809 9.10758193 -12.55102539 7.17993164 C-12.553246 6.08072891 -12.55546661 4.98152618 -12.55775452 3.84901428 C-12.27336456 -2.00178312 -4.53112188 0.0588805 0 0 Z M2.5625 14.375 C2.5625 25.925 2.5625 37.475 2.5625 49.375 C10.05402482 50.11460026 10.05402482 50.11460026 13.5625 47.375 C14.04721532 44.32108874 14.04721532 44.32108874 13.99609375 40.72265625 C14.00395653 39.7387516 14.00395653 39.7387516 14.01197815 38.73497009 C14.01840319 37.3471722 14.01705501 35.95931988 14.00854492 34.5715332 C14.00004362 32.44839298 14.02876659 30.32795157 14.06054688 28.20507812 C14.06215924 26.85677164 14.06158068 25.50846039 14.05859375 24.16015625 C14.06044678 22.93176025 14.0622998 21.70336426 14.06420898 20.43774414 C13.82512281 17.36247518 13.82512281 17.36247518 11.96899414 15.45092773 C8.93678026 13.89881698 8.93678026 13.89881698 2.5625 14.375 Z " fill="#FDFDFD" transform="translate(150.4375,93.625)"/>
<path d="M0 0 C4.62 0 9.24 0 14 0 C14 8.25 14 16.5 14 25 C17.96 25 21.92 25 26 25 C26 16.75 26 8.5 26 0 C30.95 0 35.9 0 41 0 C41 20.79 41 41.58 41 63 C36.05 63 31.1 63 26 63 C26 55.08 26 47.16 26 39 C22.04 39 18.08 39 14 39 C14 46.92 14 54.84 14 63 C9.38 63 4.76 63 0 63 C0 42.21 0 21.42 0 0 Z " fill="#FDFDFD" transform="translate(202,170)"/>
<path d="M0 0 C4.62 0 9.24 0 14 0 C14 8.25 14 16.5 14 25 C17.63 24.67 21.26 24.34 25 24 C24.98839844 22.35128906 24.97679687 20.70257813 24.96484375 19.00390625 C24.95546762 16.85677196 24.94636723 14.70963645 24.9375 12.5625 C24.92912109 11.47388672 24.92074219 10.38527344 24.91210938 9.26367188 C24.90727539 7.71196289 24.90727539 7.71196289 24.90234375 6.12890625 C24.89448853 4.69140015 24.89448853 4.69140015 24.88647461 3.22485352 C25 1 25 1 26 0 C30.62 0 35.24 0 40 0 C40 20.79 40 41.58 40 63 C35.05 63 30.1 63 25 63 C25 55.08 25 47.16 25 39 C21.37 39 17.74 39 14 39 C14 46.92 14 54.84 14 63 C9.38 63 4.76 63 0 63 C0 42.21 0 21.42 0 0 Z " fill="#FEFEFE" transform="translate(393,170)"/>
<path d="M0 0 C1.27875 0.00257812 2.5575 0.00515625 3.875 0.0078125 C5.15375 0.00523438 6.4325 0.00265625 7.75 0 C10.875 0.1328125 10.875 0.1328125 11.875 1.1328125 C11.96811889 2.63699989 11.99246028 4.14552606 11.98852539 5.65258789 C11.98844986 6.61350845 11.98837433 7.57442902 11.98829651 8.56446838 C11.98313522 9.6092485 11.97797394 10.65402863 11.97265625 11.73046875 C11.9712413 12.79446396 11.96982635 13.85845917 11.96836853 14.95469666 C11.96275064 18.36826333 11.95019511 21.7817655 11.9375 25.1953125 C11.93248731 27.50325426 11.927924 29.81119705 11.92382812 32.11914062 C11.9127754 37.79038676 11.89601987 43.46159503 11.875 49.1328125 C15.87754456 49.22462384 15.87754456 49.22462384 19.875 49.1328125 C21.47365963 47.53415287 21.03983531 45.82825218 21.08032227 43.61303711 C21.10026749 42.65211655 21.12021271 41.69119598 21.14076233 40.70115662 C21.16583107 39.13398643 21.16583107 39.13398643 21.19140625 37.53515625 C21.21218735 36.47116104 21.23296844 35.40716583 21.25437927 34.31092834 C21.31999254 30.8974581 21.37881423 27.48390821 21.4375 24.0703125 C21.48067403 21.76236141 21.52428794 19.4544185 21.56835938 17.14648438 C21.67568589 11.47534295 21.77691976 5.80412107 21.875 0.1328125 C26.825 0.1328125 31.775 0.1328125 36.875 0.1328125 C36.97400206 7.28609189 37.04653334 14.43897094 37.09472656 21.59277344 C37.11482071 24.02546131 37.14210088 26.45810101 37.17675781 28.890625 C37.2253706 32.39074605 37.24799139 35.89022752 37.265625 39.390625 C37.28627014 40.47522003 37.30691528 41.55981506 37.32818604 42.67727661 C37.33001285 48.84843333 36.97775074 52.42339177 32.875 57.1328125 C32.35679688 57.73609375 31.83859375 58.339375 31.3046875 58.9609375 C26.67017724 63.19953482 22.18519848 65.00115411 15.875 65.1328125 C9.31482763 64.1859835 4.43490428 61.91515113 -0.125 57.1328125 C-3.20061328 52.04214225 -4.24842328 47.34419969 -4.25439453 41.45019531 C-4.25754669 40.55286682 -4.26069885 39.65553833 -4.26394653 38.73101807 C-4.2619223 37.77564148 -4.25989807 36.82026489 -4.2578125 35.8359375 C-4.25876923 34.84656189 -4.25972595 33.85718628 -4.26071167 32.83782959 C-4.26139064 30.75337663 -4.25955609 28.66892153 -4.25537109 26.58447266 C-4.2499961 23.3804862 -4.25533729 20.17663849 -4.26171875 16.97265625 C-4.26105837 14.94791636 -4.25977803 12.92317655 -4.2578125 10.8984375 C-4.25983673 9.93496399 -4.26186096 8.97149048 -4.26394653 7.9788208 C-4.26079437 7.09410095 -4.25764221 6.2093811 -4.25439453 5.29785156 C-4.25359894 4.51573303 -4.25280334 3.7336145 -4.25198364 2.92779541 C-4.02738456 -0.24703487 -3.2398301 0.13769278 0 0 Z " fill="#FDFDFD" transform="translate(94.125,93.8671875)"/>
<path d="M0 0 C4.70857727 2.71716771 8.14036371 6.57488362 9.91308594 11.79760742 C10.88534876 17.13075496 10.55443035 22.6797296 10.56835938 28.09057617 C10.57804837 30.36870063 10.60908657 32.64591575 10.640625 34.92382812 C10.64715775 36.38671344 10.65240715 37.84960515 10.65625 39.3125 C10.6685968 39.9856575 10.6809436 40.658815 10.69366455 41.35237122 C10.66144567 48.30099906 8.2750148 54.12732895 3.328125 59.07421875 C-1.91538282 62.47448474 -7.52200398 64.8435353 -13.86328125 63.66796875 C-19.35593297 62.10660582 -24.07158733 59.5885691 -27.671875 55.07421875 C-30.24458099 49.9612712 -31.12942381 45.76323741 -31.10546875 40.015625 C-31.1107106 39.26764145 -31.11595245 38.5196579 -31.12135315 37.74900818 C-31.12773852 36.17667881 -31.12648182 34.60430145 -31.11791992 33.03198242 C-31.10940845 30.64609486 -31.13821804 28.262605 -31.16992188 25.87695312 C-31.21259933 16.80210993 -30.71818315 10.44258797 -25.09375 2.98046875 C-18.33900473 -2.70109269 -8.1347383 -2.81861546 0 0 Z M-15.671875 14.07421875 C-15.96404369 16.60468698 -16.0682064 18.88714755 -16.03515625 21.41796875 C-16.03565475 22.14286499 -16.03615326 22.86776123 -16.03666687 23.61462402 C-16.03432541 25.14789571 -16.02459256 26.68117116 -16.00805664 28.21435547 C-15.98446624 30.5651272 -15.98749421 32.91476504 -15.99414062 35.265625 C-15.98856385 36.75391303 -15.98145397 38.24219627 -15.97265625 39.73046875 C-15.97356766 40.43570679 -15.97447906 41.14094482 -15.97541809 41.86755371 C-16.02707161 45.92012753 -16.02707161 45.92012753 -13.671875 49.07421875 C-10.71418323 49.57432399 -10.71418323 49.57432399 -7.671875 49.07421875 C-5.28476834 46.76309891 -4.70641519 45.3351798 -4.26782227 42.02148438 C-4.2236083 37.31181592 -4.2236083 37.31181592 -4.22583008 32.60205078 C-4.23435054 30.58002242 -4.2055486 28.56081268 -4.17382812 26.5390625 C-4.17447266 25.26160156 -4.17511719 23.98414063 -4.17578125 22.66796875 C-4.17392822 21.49943359 -4.1720752 20.33089844 -4.17016602 19.12695312 C-4.44664699 15.99590222 -4.44664699 15.99590222 -6.45288086 13.66210938 C-10.08865488 11.06038485 -12.0888975 11.68556709 -15.671875 14.07421875 Z " fill="#FEFEFE" transform="translate(328.671875,94.92578125)"/>
<path d="M0 0 C4.95 0 9.9 0 15 0 C15.02505615 1.44882568 15.0501123 2.89765137 15.07592773 4.39038086 C15.16980686 9.74464397 15.27007441 15.0987714 15.37231445 20.45288086 C15.41573739 22.77413773 15.45740684 25.09542808 15.49731445 27.41674805 C15.5548394 30.74538278 15.61858425 34.07384785 15.68359375 37.40234375 C15.70030624 38.44712387 15.71701874 39.49190399 15.73423767 40.56834412 C15.75418289 41.52926468 15.77412811 42.49018524 15.79467773 43.48022461 C15.81022202 44.33071884 15.8257663 45.18121307 15.84178162 46.05747986 C15.78944829 48.00523798 15.78944829 48.00523798 17 49 C19.64 49 22.28 49 25 49 C25.33 32.83 25.66 16.66 26 0 C30.95 0 35.9 0 41 0 C41.07452132 6.38628631 41.12877744 12.77231579 41.16479492 19.15893555 C41.17982036 21.3285768 41.20024653 23.49818798 41.22631836 25.66772461 C41.26297706 28.7980901 41.27978926 31.9280517 41.29296875 35.05859375 C41.30845261 36.01833603 41.32393646 36.97807831 41.33988953 37.96690369 C41.34171832 45.39430186 40.30363064 52.33432902 35.6875 58.375 C30.82279186 63.1265754 27.22356765 64.19162997 20.5 64.375 C13.90468891 64.20262255 10.28168825 63.01637566 5.3125 58.625 C-0.31281061 52.23951228 -0.41088596 47.65450117 -0.29296875 39.35546875 C-0.28872391 38.2305452 -0.28447906 37.10562164 -0.28010559 35.9466095 C-0.2633369 32.35999438 -0.22568688 28.77394479 -0.1875 25.1875 C-0.17245087 22.75326333 -0.15876287 20.31901784 -0.14648438 17.88476562 C-0.11343911 11.92295978 -0.0616682 5.96157572 0 0 Z " fill="#FDFDFD" transform="translate(250,170)"/>
<path d="M0 0 C4.62 0 9.24 0 14 0 C14.33 16.17 14.66 32.34 15 49 C17.64 49 20.28 49 23 49 C24.59865963 47.40134037 24.16483531 45.69543968 24.20532227 43.48022461 C24.22526749 42.51930405 24.24521271 41.55838348 24.26576233 40.56834412 C24.29083107 39.00117393 24.29083107 39.00117393 24.31640625 37.40234375 C24.33718735 36.33834854 24.35796844 35.27435333 24.37937927 34.17811584 C24.44499254 30.7646456 24.50381423 27.35109571 24.5625 23.9375 C24.60567403 21.62954891 24.64928794 19.321606 24.69335938 17.01367188 C24.80068589 11.34253045 24.90191976 5.67130857 25 0 C29.95 0 34.9 0 40 0 C40.09921105 6.83182587 40.17163155 13.66322816 40.21972656 20.49560547 C40.23978577 22.81761993 40.26703991 25.13958423 40.30175781 27.46142578 C40.35052541 30.80774345 40.37302643 34.15339059 40.390625 37.5 C40.41127014 38.5305249 40.43191528 39.5610498 40.45318604 40.62280273 C40.45532992 47.57985821 39.49428241 53.3287863 34.55230713 58.52099609 C29.65476424 62.79289054 25.50929993 64.68503387 19 65 C12.58374558 63.87130865 7.46897243 61.89458885 3 57 C-0.95875297 50.40999628 -1.56097303 44.43049811 -1.42578125 36.875 C-1.42084908 35.33283813 -1.42084908 35.33283813 -1.41581726 33.75952148 C-1.40545779 31.60475247 -1.38561351 29.45000994 -1.35668945 27.29541016 C-1.31225785 23.98194199 -1.29519344 20.66919923 -1.28320312 17.35546875 C-1.2697927 15.25780192 -1.25487352 13.16014407 -1.23828125 11.0625 C-1.23089432 10.06782715 -1.22350739 9.0731543 -1.21589661 8.04833984 C-1.19664375 6.68056396 -1.19664375 6.68056396 -1.17700195 5.28515625 C-1.16715775 4.47957275 -1.15731354 3.67398926 -1.14717102 2.84399414 C-1 1 -1 1 0 0 Z " fill="#FDFDFD" transform="translate(346,94)"/>
<path d="M0 0 C6.6 0 13.2 0 20 0 C21.6971495 7.91841068 23.39258095 15.83718318 25.08496857 23.75661278 C25.8708321 27.43367736 26.65745533 31.11057603 27.44580078 34.78710938 C28.20619159 38.33340839 28.96460505 41.88012494 29.72163391 45.4271431 C30.01118699 46.78211231 30.30145915 48.13692807 30.592453 49.49158859 C30.99907046 51.38510117 31.402923 53.27920687 31.80664062 55.17333984 C32.03758423 56.25255707 32.26852783 57.33177429 32.50646973 58.44369507 C33 61 33 61 33 63 C27.72 63 22.44 63 17 63 C16.01 57.555 16.01 57.555 15 52 C11.37 51.67 7.74 51.34 4 51 C3.7834375 53.1346875 3.7834375 53.1346875 3.5625 55.3125 C3.27859126 58.11102904 2.8968714 60.3093858 2 63 C-2.95 63 -7.9 63 -13 63 C-12.34476828 55.88407249 -11.0606196 49.04655303 -9.53125 42.0703125 C-9.29088013 40.95816376 -9.05051025 39.84601501 -8.80285645 38.70016479 C-8.29728351 36.36508008 -7.78955787 34.03046052 -7.27978516 31.69628906 C-6.49809304 28.11626642 -5.7231012 24.53484312 -4.94921875 20.953125 C-4.45611716 18.67960331 -3.96264081 16.40616287 -3.46875 14.1328125 C-3.23643677 13.0609671 -3.00412354 11.9891217 -2.76477051 10.88479614 C-2.43938293 9.39712234 -2.43938293 9.39712234 -2.10742188 7.87939453 C-1.91724487 7.00719269 -1.72706787 6.13499084 -1.53112793 5.23635864 C-1 3 -1 3 0 0 Z M9 28 C8.67 30.97 8.34 33.94 8 37 C9.32 37 10.64 37 12 37 C11.67 34.03 11.34 31.06 11 28 C10.34 28 9.68 28 9 28 Z " fill="#FEFEFE" transform="translate(194,94)"/>
<path d="M0 0 C0.70382812 -0.02900391 1.40765625 -0.05800781 2.1328125 -0.08789062 C8.25547801 -0.16186335 11.44716644 1.99410681 16.1484375 5.8828125 C19.52306929 9.43599623 20.625 11.78458294 20.625 16.75 C20.439375 19.0084375 20.439375 19.0084375 20.25 21.3125 C15.63 21.3125 11.01 21.3125 6.25 21.3125 C5.59 19.3325 4.93 17.3525 4.25 15.3125 C0.14776415 14.29709888 0.14776415 14.29709888 -3.75 15.3125 C-3.75 17.6225 -3.75 19.9325 -3.75 22.3125 C-2.95335937 22.62703125 -2.15671875 22.9415625 -1.3359375 23.265625 C9.66192535 27.70758421 9.66192535 27.70758421 14.25 31.3125 C14.806875 31.64894531 15.36375 31.98539063 15.9375 32.33203125 C18.07595383 33.8913205 19.05677027 34.91775423 20.25 37.3125 C20.76164614 42.6954438 20.59559955 47.92370702 20.25 53.3125 C19.59 53.3125 18.93 53.3125 18.25 53.3125 C17.98316406 53.90804687 17.71632813 54.50359375 17.44140625 55.1171875 C15.1400927 59.35764067 11.54816063 62.34970047 7.10546875 64.2109375 C0.76606941 65.92068793 -4.87938834 65.28216037 -10.73046875 62.3046875 C-15.02623129 59.53854616 -18.10296789 56.20368626 -19.75 51.3125 C-20.04594944 48.54707082 -19.94604933 46.10620297 -19.75 43.3125 C-15.13 43.3125 -10.51 43.3125 -5.75 43.3125 C-4.76 45.2925 -3.77 47.2725 -2.75 49.3125 C-0.75045254 49.35504356 1.25041636 49.35330783 3.25 49.3125 C4.45561184 48.32982141 4.45561184 48.32982141 4.34765625 46.46484375 C4.33605469 45.73394531 4.32445312 45.00304687 4.3125 44.25 C4.291875 42.950625 4.27125 41.65125 4.25 40.3125 C3.280625 40.23 2.31125 40.1475 1.3125 40.0625 C-5.35048468 39.10292209 -11.98104423 36.08145577 -16.75 31.3125 C-20.90267284 25.727871 -20.50533828 18.96626644 -19.75 12.3125 C-15.7573292 3.71290135 -9.12408451 0.12263554 0 0 Z " fill="#FDFDFD" transform="translate(412.75,93.6875)"/>
<path d="M0 0 C3.84730373 2.79336529 7.27999457 6.7177105 8.75390625 11.2734375 C8.90454665 13.96418668 8.84389698 16.5737156 8.75390625 19.2734375 C3.80390625 19.2734375 -1.14609375 19.2734375 -6.24609375 19.2734375 C-6.57609375 17.2934375 -6.90609375 15.3134375 -7.24609375 13.2734375 C-11.3483296 12.25803638 -11.3483296 12.25803638 -15.24609375 13.2734375 C-15.57609375 24.4934375 -15.90609375 35.7134375 -16.24609375 47.2734375 C-13.60609375 47.2734375 -10.96609375 47.2734375 -8.24609375 47.2734375 C-7.58609375 45.2934375 -6.92609375 43.3134375 -6.24609375 41.2734375 C-1.29609375 41.2734375 3.65390625 41.2734375 8.75390625 41.2734375 C9.27229992 47.07944664 8.75906241 50.64483175 5.34375 55.44140625 C1.56299047 59.79810458 -1.79615305 61.89496789 -7.55859375 62.78515625 C-14.6472615 63.12889553 -19.81866041 62.50402171 -25.47265625 58.05859375 C-32.7808614 50.7020965 -32.45833107 42.43715243 -32.48632812 32.64868164 C-32.49598094 30.60976527 -32.52700547 28.57188102 -32.55859375 26.53320312 C-32.62185756 10.50373566 -32.62185756 10.50373566 -27.37890625 3.93359375 C-18.88583036 -2.82451527 -10.10970514 -5.75946838 0 0 Z " fill="#FDFDFD" transform="translate(186.24609375,171.7265625)"/>
<path d="M0 0 C4.34788997 2.9896486 6.74446584 5.98020083 7.75390625 11.2109375 C8.015189 13.64499258 8.13776177 16.09308854 8.23828125 18.5390625 C3.28828125 18.5390625 -1.66171875 18.5390625 -6.76171875 18.5390625 C-7.42171875 16.5590625 -8.08171875 14.5790625 -8.76171875 12.5390625 C-11.11539588 11.8512389 -11.11539588 11.8512389 -13.76171875 11.5390625 C-14.75171875 12.1990625 -15.74171875 12.8590625 -16.76171875 13.5390625 C-17.19690055 16.70962879 -17.19690055 16.70962879 -17.08984375 20.4453125 C-17.08797058 21.12581665 -17.08609741 21.8063208 -17.08416748 22.50744629 C-17.07744331 23.94658302 -17.06352139 25.38570136 -17.04296875 26.82470703 C-17.01184035 29.03044574 -17.00200119 31.23546977 -16.99609375 33.44140625 C-17.34653538 40.19464 -17.34653538 40.19464 -15.76171875 46.5390625 C-13.45171875 46.5390625 -11.14171875 46.5390625 -8.76171875 46.5390625 C-8.10171875 44.5590625 -7.44171875 42.5790625 -6.76171875 40.5390625 C-1.81171875 40.5390625 3.13828125 40.5390625 8.23828125 40.5390625 C7.81517083 47.52038437 6.98478315 51.92005936 1.74609375 56.98046875 C-3.76584465 61.79313138 -8.37891679 61.94980523 -15.4609375 61.87890625 C-21.12969083 61.29525946 -24.58632737 58.98160721 -28.3203125 54.7890625 C-33.78882135 47.60099421 -33.04498942 39.81261257 -33.11181641 31.15039062 C-33.12834404 29.58318194 -33.15559244 28.01604764 -33.19384766 26.44921875 C-33.57481949 10.7333024 -33.57481949 10.7333024 -29.13525391 4.96337891 C-20.35481459 -4.14168383 -11.2775229 -6.27893188 0 0 Z " fill="#FDFDFD" transform="translate(377.76171875,172.4609375)"/>
<path d="M0 0 C4.54664906 2.63636495 7.54197994 6.17509019 9.3046875 11.12890625 C9.91959738 13.86671929 10.15856124 16.30379847 10.3046875 19.12890625 C9.3046875 20.12890625 9.3046875 20.12890625 6.14453125 20.2265625 C4.85675781 20.21496094 3.56898438 20.20335938 2.2421875 20.19140625 C0.95183594 20.18238281 -0.33851563 20.17335938 -1.66796875 20.1640625 C-2.66699219 20.15246094 -3.66601562 20.14085938 -4.6953125 20.12890625 C-5.3553125 18.14890625 -6.0153125 16.16890625 -6.6953125 14.12890625 C-10.79754835 13.11350513 -10.79754835 13.11350513 -14.6953125 14.12890625 C-14.71996538 18.81029879 -14.73814989 23.49165384 -14.75024414 28.1730957 C-14.75528407 29.76685239 -14.762116 31.36060444 -14.77075195 32.9543457 C-14.78283249 35.24040878 -14.78854405 37.52641092 -14.79296875 39.8125 C-14.79813004 40.52917343 -14.80329132 41.24584686 -14.80860901 41.98423767 C-14.80880513 43.69954297 -14.75723257 45.41471891 -14.6953125 47.12890625 C-13.56997145 48.48509124 -13.56997145 48.48509124 -10.6328125 48.19140625 C-9.6634375 48.17078125 -8.6940625 48.15015625 -7.6953125 48.12890625 C-6.7053125 46.14890625 -5.7153125 44.16890625 -4.6953125 42.12890625 C0.2546875 42.12890625 5.2046875 42.12890625 10.3046875 42.12890625 C10.07608976 49.44403396 8.67241189 53.99355088 3.3046875 59.12890625 C-1.78384813 62.69294133 -7.59264693 64.83498094 -13.8515625 63.7578125 C-19.89228919 62.09247518 -24.63156742 58.90405035 -28.6953125 54.12890625 C-30.92345049 49.78913091 -31.03260823 45.60805422 -31.06640625 40.828125 C-31.07543472 40.03291946 -31.0844632 39.23771393 -31.09376526 38.41841125 C-31.10823283 36.73999779 -31.1171458 35.06152837 -31.12084961 33.38305664 C-31.13272832 30.83446613 -31.18192829 28.2883133 -31.23242188 25.74023438 C-31.38372056 10.55781714 -31.38372056 10.55781714 -25.6953125 4.12890625 C-18.80657693 -2.11901671 -8.82134978 -2.85095797 0 0 Z " fill="#FDFDFD" transform="translate(259.6953125,94.87109375)"/>
<path d="M0 0 C4.95 0 9.9 0 15 0 C15 20.79 15 41.58 15 63 C10.05 63 5.1 63 0 63 C0 42.21 0 21.42 0 0 Z " fill="#FDFDFD" transform="translate(276,94)"/>
</svg>
