<?xml version="1.0" encoding="UTF-8"?>
<svg version="1.1" xmlns="http://www.w3.org/2000/svg" width="452" height="332">
<path d="M0 0 C13.28332663 10.16242757 21.45713387 23.56381156 23.72265625 40.19921875 C25.34227915 56.55512883 21.20056854 71.37839368 11.171875 84.4609375 C2.03279698 95.14511145 -9.90538379 102.93016126 -24 105 C-39.80268417 106.02947914 -53.45889619 104.92709807 -67 96 C-67.73734375 95.52046875 -68.4746875 95.0409375 -69.234375 94.546875 C-80.97044086 86.21022132 -88.65986453 73.37189462 -91.60522461 59.40209961 C-92.25117123 55.47169217 -92.34097106 51.6015937 -92.3125 47.625 C-92.30686035 46.79282959 -92.3012207 45.96065918 -92.29541016 45.10327148 C-91.98044145 29.10067844 -85.30682439 16.16649147 -74 5 C-73.45859375 4.43667969 -72.9171875 3.87335938 -72.359375 3.29296875 C-52.97298364 -15.26117854 -21.2666194 -14.18827951 0 0 Z M-72.9921875 17.25390625 C-81.6359448 29.07601011 -84.14878969 40.56014979 -83 55 C-80.50714078 68.27037032 -73.44821013 80.18200737 -62.27734375 87.875 C-49.98321564 95.48942773 -36.93094989 98.2628984 -22.66015625 95.30859375 C-9.58171185 91.28575178 2.03235836 83.24774653 8.94140625 71.22265625 C15.2877856 57.89760145 16.27049939 45.44674787 12.21875 31.265625 C9.93307504 24.92090659 6.41464312 20.04665399 2 15 C1.24976562 14.07380859 1.24976562 14.07380859 0.484375 13.12890625 C-6.7450973 4.93185306 -18.99309837 -0.36835059 -29.7265625 -1.3359375 C-47.17277651 -1.51074926 -61.43810922 3.64991085 -72.9921875 17.25390625 Z " fill="#FFFFFF" transform="translate(92,118)"/>
<path d="M0 0 C17.16 0 34.32 0 52 0 C50.56383331 3.59041672 49.42592959 6.09995004 47.36328125 9.21484375 C46.62174805 10.36823242 46.62174805 10.36823242 45.86523438 11.54492188 C44.82836855 13.1426082 43.78141916 14.73379464 42.72460938 16.31835938 C39.81192316 20.8538701 39.81192316 20.8538701 38.859375 26.05859375 C40.42129542 30.08642278 42.56014473 33.53062555 44.9375 37.125 C45.84393501 38.52247406 46.74893112 39.92088269 47.65234375 41.3203125 C48.25550415 42.23707764 48.25550415 42.23707764 48.87084961 43.17236328 C50.02972604 45.04811441 51.01395366 47.02790733 52 49 C34.84 49 17.68 49 0 49 C0 32.83 0 16.66 0 0 Z M9 9 C9 19.23 9 29.46 9 40 C17.58 40 26.16 40 35 40 C33.28491876 35.7122969 31.5547873 32.73570281 28.92578125 29.0625 C27.65353851 26.22813642 28.03498026 24.93852856 29 22 C30.12162692 19.8804748 31.31430431 17.79754525 32.5625 15.75 C34.83304013 12.58950159 34.83304013 12.58950159 36 9 C27.09 9 18.18 9 9 9 Z " fill="#FFFFFF" transform="translate(35,140)"/>
<path d="M0 0 C3.856875 -0.061875 7.71375 -0.12375 11.6875 -0.1875 C13.4986731 -0.22846802 13.4986731 -0.22846802 15.34643555 -0.27026367 C16.308479 -0.27775635 17.27052246 -0.28524902 18.26171875 -0.29296875 C19.24100342 -0.3086792 20.22028809 -0.32438965 21.22924805 -0.34057617 C24.52251457 0.06422661 26.34115396 1.0417397 29 3 C31.45416273 6.6812441 31.59384154 9.72261963 31 14 C29.5 16.5 29.5 16.5 28 18 C28.825 18.61875 29.65 19.2375 30.5 19.875 C33.05068693 22.42568693 33.46503445 24.42743595 33.625 28 C33.43529499 31.8573352 33.10979523 32.85459551 30.6875 36.0625 C26.75163642 38.89998304 23.96799037 39.12166493 19.23828125 39.09765625 C17.72681519 39.09390991 17.72681519 39.09390991 16.18481445 39.09008789 C14.2680188 39.07643188 14.2680188 39.07643188 12.3125 39.0625 C6.2178125 39.0315625 6.2178125 39.0315625 0 39 C0 26.13 0 13.26 0 0 Z M8 7 C8 9.97 8 12.94 8 16 C9.74965358 16.05429959 11.49979787 16.09292823 13.25 16.125 C14.22453125 16.14820313 15.1990625 16.17140625 16.203125 16.1953125 C19.0196498 15.99862781 20.60949036 15.44568916 23 14 C23.16687448 11.58354218 23.16687448 11.58354218 23 9 C21.11153817 6.67133771 21.11153817 6.67133771 17.9609375 6.8046875 C16.18589844 6.83949219 16.18589844 6.83949219 14.375 6.875 C12.59222656 6.90207031 12.59222656 6.90207031 10.7734375 6.9296875 C9.40058594 6.96449219 9.40058594 6.96449219 8 7 Z M8 23 C8 25.97 8 28.94 8 32 C10.24893954 32.10823773 12.49937575 32.18569645 14.75 32.25 C16.62945312 32.31960937 16.62945312 32.31960937 18.546875 32.390625 C22.07830498 32.30821551 22.07830498 32.30821551 24.453125 29.984375 C24.96359375 29.32953125 25.4740625 28.6746875 26 28 C24.77992056 25.3094472 24.77992056 25.3094472 23 23 C20.46950598 22.92686433 17.96695163 22.90752473 15.4375 22.9375 C14.72658203 22.94201172 14.01566406 22.94652344 13.28320312 22.95117188 C11.52209987 22.96299136 9.76103964 22.98092737 8 23 Z " fill="#FFFFFF" transform="translate(143,121)"/>
<path d="M0 0 C1.55859375 1.16796875 1.55859375 1.16796875 3.55859375 4.16796875 C2.23859375 5.81796875 0.91859375 7.46796875 -0.44140625 9.16796875 C-5.44140625 7.16796875 -5.44140625 7.16796875 -7.81640625 5.98046875 C-11.44890474 4.85612398 -13.77936075 5.18706371 -17.44140625 6.16796875 C-21.87750711 9.88305211 -21.87750711 9.88305211 -23.64453125 15.15625 C-23.78136362 21.70062476 -23.78136362 21.70062476 -20.44140625 27.16796875 C-16.49686645 29.5656302 -13.78041811 30.54373055 -9.31640625 29.48046875 C-6.29656614 28.53456552 -3.34141885 27.43672426 -0.44140625 26.16796875 C0.87859375 27.81796875 2.19859375 29.46796875 3.55859375 31.16796875 C-2.0112693 36.20736865 -6.55383749 38.68901886 -14.3671875 38.40625 C-21.59079071 37.57641988 -25.49595765 34.63538756 -30.09375 29.10546875 C-33.71222391 23.90325698 -32.85196766 17.22188329 -32.44140625 11.16796875 C-30.41811675 5.20458918 -26.72687924 1.49354308 -21.31640625 -1.64453125 C-14.0902645 -4.38385296 -6.69760747 -3.6342527 0 0 Z " fill="#FFFFFF" transform="translate(174.44140625,172.83203125)"/>
<path d="M0 0 C2.83930749 1.54066373 3.54713222 2.35194833 5.4375 5.1875 C4.1175 6.8375 2.7975 8.4875 1.4375 10.1875 C-3.35386691 8.32419065 -3.35386691 8.32419065 -5.375 7 C-8.85103122 5.70890269 -12.09824662 6.10148406 -15.5625 7.1875 C-18.69566436 9.78735979 -21.3373786 11.98390787 -21.765625 16.17578125 C-21.90245737 22.72015601 -21.90245737 22.72015601 -18.5625 28.1875 C-14.6179602 30.58516145 -11.90151186 31.5632618 -7.4375 30.5 C-4.41765989 29.55409677 -1.4625126 28.45625551 1.4375 27.1875 C2.7575 28.8375 4.0775 30.4875 5.4375 32.1875 C-0.3641127 37.43657816 -5.31533408 39.72313331 -13.26171875 39.49609375 C-19.95908727 38.59780493 -24.26985131 34.96515467 -28.43359375 29.87109375 C-31.85680332 24.76589194 -30.94627315 18.05271223 -30.5625 12.1875 C-28.88314097 6.75427961 -25.19716559 3.3277224 -20.5625 0.1875 C-14.00581775 -2.95714043 -6.60420548 -3.14543363 0 0 Z " fill="#FFFFFF" transform="translate(330.5625,121.8125)"/>
<path d="M0 0 C2.64 0 5.28 0 8 0 C8.33 3.96 8.66 7.92 9 12 C10.175625 11.608125 11.35125 11.21625 12.5625 10.8125 C16.05081817 9.94660542 17.1497324 10.0417287 20.8125 11.0625 C24.28769401 13.17487283 25.25745855 14.40171479 27 18 C27.34057617 20.67895508 27.34057617 20.67895508 27.29296875 23.51953125 C27.28330078 24.54111328 27.27363281 25.56269531 27.26367188 26.61523438 C27.23853516 27.67033203 27.21339844 28.72542969 27.1875 29.8125 C27.16719727 31.42415039 27.16719727 31.42415039 27.14648438 33.06835938 C27.11122577 35.71275455 27.06194366 38.35611748 27 41 C24.36 41 21.72 41 19 41 C18.97494385 40.40461426 18.9498877 39.80922852 18.92407227 39.19580078 C18.80822506 36.50530864 18.68544804 33.8151766 18.5625 31.125 C18.52318359 30.18785156 18.48386719 29.25070313 18.44335938 28.28515625 C18.40146484 27.38925781 18.35957031 26.49335938 18.31640625 25.5703125 C18.27974854 24.74289551 18.24309082 23.91547852 18.20532227 23.06298828 C18.11761673 20.93820571 18.11761673 20.93820571 17 19 C14.36 19 11.72 19 9 19 C8.67 26.26 8.34 33.52 8 41 C5.36 41 2.72 41 0 41 C0 27.47 0 13.94 0 0 Z " fill="#FFFFFF" transform="translate(182,169)"/>
<path d="M0 0 C2.64 0 5.28 0 8 0 C8.33 6.93 8.66 13.86 9 21 C10.464375 19.35 11.92875 17.7 13.4375 16 C18.1701987 11.20653912 18.1701987 11.20653912 21.66796875 10.3359375 C24.125 10.375 24.125 10.375 28 11 C26.52278578 14.45201639 24.56205999 16.64961936 21.875 19.25 C21.15054687 19.95640625 20.42609375 20.6628125 19.6796875 21.390625 C19.12539063 21.92171875 18.57109375 22.4528125 18 23 C20.38912934 27.48342995 22.79047805 31.84481884 25.8125 35.9375 C28 39 28 39 28 41 C24.77280243 41.73956611 22.20224326 41.92268026 19 41 C15.76880491 37.6733016 13.3680477 33.97470676 11 30 C8.60236815 32.39763185 8.65719414 33.33273498 8.375 36.625 C8.30023438 37.44226563 8.22546875 38.25953125 8.1484375 39.1015625 C8.07496094 40.04128906 8.07496094 40.04128906 8 41 C5.36 41 2.72 41 0 41 C0 27.47 0 13.94 0 0 Z " fill="#FFFFFF" transform="translate(424,119)"/>
<path d="M0 0 C2.64 0 5.28 0 8 0 C8.33 4.29 8.66 8.58 9 13 C9.66 12.34 10.32 11.68 11 11 C15.61951435 9.74013245 18.67228519 9.93022335 23 12 C25.73664531 14.29700374 26.890804 16.08997763 27.31884766 19.65722656 C27.39403089 22.8844795 27.3480608 26.08592259 27.25 29.3125 C27.23195313 30.43462891 27.21390625 31.55675781 27.1953125 32.71289062 C27.14827856 35.47613447 27.08256317 38.23762698 27 41 C24.69 41 22.38 41 20 41 C19.95101563 39.83082031 19.90203125 38.66164062 19.8515625 37.45703125 C19.77649829 35.90883196 19.70095205 34.36065599 19.625 32.8125 C19.5940625 32.04357422 19.563125 31.27464844 19.53125 30.48242188 C19.31383889 26.26102289 18.90256928 22.85927672 17 19 C14.08347826 18.83318891 14.08347826 18.83318891 11 19 C8.56085508 21.43914492 8.71337477 22.21446431 8.5859375 25.5703125 C8.52792969 26.91416016 8.52792969 26.91416016 8.46875 28.28515625 C8.42234375 29.69087891 8.42234375 29.69087891 8.375 31.125 C8.31699219 32.54232422 8.31699219 32.54232422 8.2578125 33.98828125 C8.16338654 36.32532375 8.07781606 38.66235501 8 41 C5.36 41 2.72 41 0 41 C0 27.47 0 13.94 0 0 Z " fill="#FFFFFF" transform="translate(298,169)"/>
<path d="M0 0 C3.6507527 2.8739968 5.81898064 5.49065336 7 10 C7 12.31 7 14.62 7 17 C0.07 17 -6.86 17 -14 17 C-12.5 21 -12.5 21 -10 22 C-6.33726108 22.20732484 -3.69592361 22.30750113 -0.3125 20.8125 C0.450625 20.544375 1.21375 20.27625 2 20 C4.3125 21.375 4.3125 21.375 6 23 C4.9730655 26.30901116 3.96077893 27.0219638 0.875 28.75 C-4.34960717 30.72687839 -8.94002732 30.75268233 -14.25 28.8125 C-17.8177811 26.46100791 -20.09221079 23.81557843 -22 20 C-22.72156957 12.86710737 -22.42959784 7.74650531 -18 2 C-12.01457971 -2.48906522 -6.86774793 -2.48955863 0 0 Z M-14 9 C-14 9.99 -14 10.98 -14 12 C-9.71 12 -5.42 12 -1 12 C-1.97885993 7.68751735 -1.97885993 7.68751735 -5 5 C-9.45762977 4.19991261 -11.29113548 5.48850895 -14 9 Z " fill="#FFFFFF" transform="translate(381,131)"/>
<path d="M0 0 C4.59044072 5.36441038 4.34375 8.32067433 4.34375 15.6328125 C-2.58625 15.6328125 -9.51625 15.6328125 -16.65625 15.6328125 C-13.34178065 20.96985563 -13.34178065 20.96985563 -9.09375 21.0703125 C-5.54067426 20.87730366 -5.54067426 20.87730366 -2.65625 18.6328125 C-0.59375 18.7578125 -0.59375 18.7578125 1.34375 19.6328125 C2.59375 21.6953125 2.59375 21.6953125 3.34375 23.6328125 C-1.25764333 27.48803394 -4.3370279 29.01910112 -10.46484375 28.90625 C-15.0367107 28.33578532 -18.90792661 26.52846652 -22.046875 23.125 C-25.05326048 18.57307833 -25.55988671 13.95422868 -24.65625 8.6328125 C-23.29039571 4.43299317 -21.69591571 1.45921345 -18.21875 -1.3046875 C-12.25291288 -3.77832728 -5.32545093 -4.39600902 0 0 Z M-16.65625 7.6328125 C-16.65625 8.6228125 -16.65625 9.6128125 -16.65625 10.6328125 C-12.36625 10.6328125 -8.07625 10.6328125 -3.65625 10.6328125 C-3.98625 8.9828125 -4.31625 7.3328125 -4.65625 5.6328125 C-9.74100887 2.24297326 -12.91023602 2.77686845 -16.65625 7.6328125 Z " fill="#FFFFFF" transform="translate(291.65625,132.3671875)"/>
<path d="M0 0 C2.21875414 1.45030759 3.66149438 2.79173876 4.8515625 5.171875 C4.93627614 6.98529342 4.95877333 8.80181661 4.94921875 10.6171875 C4.94599609 11.69355469 4.94277344 12.76992187 4.93945312 13.87890625 C4.93107422 15.00683594 4.92269531 16.13476562 4.9140625 17.296875 C4.90955078 18.43253906 4.90503906 19.56820312 4.90039062 20.73828125 C4.88857865 23.54953138 4.87210757 26.3606773 4.8515625 29.171875 C1.51822917 29.171875 -1.81510417 29.171875 -5.1484375 29.171875 C-6.58623249 29.39918354 -8.02370695 29.6285245 -9.4609375 29.859375 C-13.85883496 30.36792666 -16.41506391 29.72149599 -20.1484375 27.171875 C-22.61594989 23.47060641 -22.45564906 21.54963968 -22.1484375 17.171875 C-21.5859375 14.921875 -21.5859375 14.921875 -20.1484375 13.171875 C-14.61182166 10.13216434 -10.01734979 9.37825197 -3.7109375 10.671875 C-3.1953125 10.836875 -2.6796875 11.001875 -2.1484375 11.171875 C-3.1927915 9.05326727 -3.1927915 9.05326727 -5.1484375 7.171875 C-8.34646526 6.68721134 -8.34646526 6.68721134 -11.8359375 6.921875 C-13.01542969 6.95796875 -14.19492188 6.9940625 -15.41015625 7.03125 C-16.76560547 7.10085937 -16.76560547 7.10085937 -18.1484375 7.171875 C-18.4784375 5.191875 -18.8084375 3.211875 -19.1484375 1.171875 C-13.80079702 -2.08888139 -5.79748933 -2.23466861 0 0 Z M-14.1484375 18.171875 C-13.82802353 20.77468068 -13.82802353 20.77468068 -13.1484375 23.171875 C-9.93113759 24.1830264 -8.54707197 24.34401261 -5.3984375 22.984375 C-3.03350785 21.37686576 -3.03350785 21.37686576 -2.2734375 19.046875 C-2.2321875 18.428125 -2.1909375 17.809375 -2.1484375 17.171875 C-3.73737822 15.58293428 -5.39645174 16.00189089 -7.5859375 15.984375 C-8.38902344 15.97019531 -9.19210938 15.95601562 -10.01953125 15.94140625 C-12.36474383 15.97025144 -12.36474383 15.97025144 -14.1484375 18.171875 Z " fill="#FFFFFF" transform="translate(201.1484375,130.828125)"/>
<path d="M0 0 C3.6507527 2.8739968 5.81898064 5.49065336 7 10 C7 12.31 7 14.62 7 17 C0.07 17 -6.86 17 -14 17 C-12.5 21 -12.5 21 -10 22 C-5.44452917 22.25785684 -2.1219364 21.99851462 2 20 C3.32 21.32 4.64 22.64 6 24 C1.9870957 28.45878255 -0.95074803 29.83736095 -6.9375 30.3125 C-10.92026158 30.19249212 -13.63287721 29.21924002 -17 27 C-21.88097598 21.59135094 -22.34980882 18.14410768 -22.28125 10.98828125 C-21.9054694 6.99561236 -20.74835565 4.89691541 -18 2 C-11.91312377 -2.41298527 -6.94162471 -2.51633896 0 0 Z M-14 9 C-14 9.99 -14 10.98 -14 12 C-9.71 12 -5.42 12 -1 12 C-1.97885993 7.68751735 -1.97885993 7.68751735 -5 5 C-9.45762977 4.19991261 -11.29113548 5.48850895 -14 9 Z " fill="#FFFFFF" transform="translate(413,131)"/>
<path d="M0 0 C2.64 0 5.28 0 8 0 C8.01458252 0.59014893 8.02916504 1.18029785 8.04418945 1.78833008 C8.11868844 4.46371229 8.21533995 7.13784892 8.3125 9.8125 C8.33505859 10.74126953 8.35761719 11.67003906 8.38085938 12.62695312 C8.41630859 13.51962891 8.45175781 14.41230469 8.48828125 15.33203125 C8.51446533 16.15421143 8.54064941 16.9763916 8.56762695 17.82348633 C9.09277892 20.46703786 9.84686902 21.41251386 12 23 C14.59117313 22.99843776 14.59117313 22.99843776 17 22 C19.05127844 18.92308234 19.27260872 18.06355001 19.4140625 14.55078125 C19.45273438 13.70322266 19.49140625 12.85566406 19.53125 11.98242188 C19.5621875 11.10134766 19.593125 10.22027344 19.625 9.3125 C19.66367188 8.41982422 19.70234375 7.52714844 19.7421875 6.60742188 C19.83640218 4.4051538 19.92201588 2.20289278 20 0 C22.64 0 25.28 0 28 0 C28 9.9 28 19.8 28 30 C25.36 30 22.72 30 20 30 C19.67 29.34 19.34 28.68 19 28 C18.360625 28.515625 17.72125 29.03125 17.0625 29.5625 C12.8365048 31.5461304 9.43861031 31.3689172 5 30 C1.32385285 26.59956389 0.12058646 23.52998177 -0.11352539 18.61816406 C-0.10828857 17.75932617 -0.10305176 16.90048828 -0.09765625 16.015625 C-0.09443359 15.08105469 -0.09121094 14.14648438 -0.08789062 13.18359375 C-0.07951172 12.21550781 -0.07113281 11.24742187 -0.0625 10.25 C-0.05798828 9.26644531 -0.05347656 8.28289062 -0.04882812 7.26953125 C-0.03706483 4.84629209 -0.02062684 2.42317727 0 0 Z " fill="#FFFFFF" transform="translate(214,180)"/>
<path d="M0 0 C1.796875 1.58203125 1.796875 1.58203125 3 3 C1.63016497 6.16115776 1.0109362 6.9927092 -2 9 C-3.299375 8.195625 -3.299375 8.195625 -4.625 7.375 C-7.91059844 5.68900714 -7.91059844 5.68900714 -11.25 6.5625 C-13.99205569 7.77745885 -13.99205569 7.77745885 -15.4375 9.6875 C-16.26741524 13.09937375 -15.86146863 15.61565894 -15 19 C-13.5 21.16666667 -13.5 21.16666667 -11 22 C-6.79374114 21.77861795 -4.52432557 21.34955038 -1 19 C0.32 20.32 1.64 21.64 3 23 C1.97386916 25.97577944 1.03368909 26.97754061 -1.625 28.75 C-6.87390955 30.69404057 -10.90844438 30.7381961 -16.1875 28.875 C-20.24831306 26.16779129 -23.21493045 23.60084392 -24.63671875 18.890625 C-25.51688752 13.4014004 -24.81922838 8.81891363 -22 4 C-15.81927012 -2.52410376 -8.10260117 -2.90390427 0 0 Z " fill="#FFFFFF" transform="translate(291,181)"/>
<path d="M0 0 C2.64 0 5.28 0 8 0 C8 2.64 8 5.28 8 8 C10.64 8 13.28 8 16 8 C16 10.31 16 12.62 16 15 C13.36 15 10.72 15 8 15 C8 20.28 8 25.56 8 31 C10.64 31 13.28 31 16 31 C16 32.98 16 34.96 16 37 C12.96188721 38.77857628 10.9410571 39.26355015 7.4375 38.9375 C6.67308594 38.88464844 5.90867188 38.83179688 5.12109375 38.77734375 C3 38 3 38 1.234375 36.0234375 C-0.47306139 31.84129899 -0.32498175 28.1538943 -0.1875 23.6875 C-0.17396484 22.85154297 -0.16042969 22.01558594 -0.14648438 21.15429688 C-0.11131217 19.10258502 -0.05751048 17.05120725 0 15 C-1.32 15 -2.64 15 -4 15 C-4 12.69 -4 10.38 -4 8 C-2.68 8 -1.36 8 0 8 C0 5.36 0 2.72 0 0 Z " fill="#FFFFFF" transform="translate(213,122)"/>
<path d="M0 0 C2.64 0 5.28 0 8 0 C8 2.64 8 5.28 8 8 C10.64 8 13.28 8 16 8 C16 10.31 16 12.62 16 15 C13.36 15 10.72 15 8 15 C8.33 19.95 8.66 24.9 9 30 C12.79788698 31.12126781 12.79788698 31.12126781 16 31 C16 32.98 16 34.96 16 37 C12.59304531 39.41325957 9.77248985 39.10241475 5.8359375 38.48046875 C3.45584482 37.85759343 2.34634263 37.05911226 1 35 C0.09761253 32.29283758 -0.11851302 30.76223232 -0.09765625 27.98828125 C-0.09282227 26.85229492 -0.09282227 26.85229492 -0.08789062 25.69335938 C-0.07951172 24.90767578 -0.07113281 24.12199219 -0.0625 23.3125 C-0.05798828 22.51521484 -0.05347656 21.71792969 -0.04882812 20.89648438 C-0.0370585 18.93095743 -0.01912348 16.96546915 0 15 C-0.99 15 -1.98 15 -3 15 C-3 12.69 -3 10.38 -3 8 C-2.01 8 -1.02 8 0 8 C0 5.36 0 2.72 0 0 Z " fill="#FFFFFF" transform="translate(234,122)"/>
<path d="M0 0 C2.64 0 5.28 0 8 0 C8.33 0.66 8.66 1.32 9 2 C9.99 1.34 10.98 0.68 12 0 C15.1875 -0.125 15.1875 -0.125 18 0 C18 2.64 18 5.28 18 8 C16.88625 8.2475 15.7725 8.495 14.625 8.75 C11.07747313 9.59781888 11.07747313 9.59781888 9.8125 11.5625 C8.64237689 15.07286933 8.53045714 18.58380242 8.375 22.25 C8.31699219 23.36761719 8.31699219 23.36761719 8.2578125 24.5078125 C8.16394892 26.3381524 8.08090282 28.16904143 8 30 C5.36 30 2.72 30 0 30 C0 20.1 0 10.2 0 0 Z " fill="#FFFFFF" transform="translate(340,130)"/>
<path d="M0 0 C2.31 0 4.62 0 7 0 C7.33 0.99 7.66 1.98 8 3 C8.804375 2.2575 8.804375 2.2575 9.625 1.5 C12.59358445 -0.37489544 14.55312427 -0.23501425 18 0 C18 2.64 18 5.28 18 8 C16.906875 8.20625 15.81375 8.4125 14.6875 8.625 C10.86736647 9.62996995 10.86736647 9.62996995 9.3125 12.625 C7.86393552 16.3498801 7.50037171 19.39211967 7.3125 23.375 C7.24675781 24.62023437 7.18101562 25.86546875 7.11328125 27.1484375 C7.07589844 28.08945313 7.03851563 29.03046875 7 30 C4.69 30 2.38 30 0 30 C0 20.1 0 10.2 0 0 Z " fill="#FFFFFF" transform="translate(248,180)"/>
<path d="M0 0 C2.31 0 4.62 0 7 0 C7 13.53 7 27.06 7 41 C4.69 41 2.38 41 0 41 C0 27.47 0 13.94 0 0 Z " fill="#FFFFFF" transform="translate(255,119)"/>
</svg>
