<?xml version="1.0" encoding="UTF-8"?>
<svg version="1.1" xmlns="http://www.w3.org/2000/svg" width="452" height="332">
<path d="M0 0 C2.3125 0.75 2.3125 0.75 3.3125 1.75 C3.02462083 8.40720587 0.25046382 13.61361697 -2.6875 19.5 C-3.77872263 21.72652486 -4.86986362 23.95308974 -5.9609375 26.1796875 C-6.56207886 27.39815916 -7.16331885 28.61658216 -7.76464844 29.83496094 C-9.83910627 34.04740503 -11.87741119 38.2769918 -13.9140625 42.5078125 C-28.01679979 71.76553899 -28.01679979 71.76553899 -33.64501953 81.63232422 C-39.49824189 92.22732947 -41.78996424 104.58672038 -44.6875 116.25 C-44.86047607 116.94233734 -45.03345215 117.63467468 -45.21166992 118.34799194 C-50.48361676 137.34233082 -50.48361676 137.34233082 -52.6875 156.75 C-44.98517186 145.58770956 -37.99585356 134.07217209 -31.20214844 122.33740234 C-29.85409266 120.03458236 -28.47266241 117.75826038 -27.0703125 115.48828125 C-21.80661195 106.81948266 -18.79535771 98.27824655 -16.078125 88.52734375 C-11.86345653 73.58901529 -4.28985682 59.27261126 7.3125 48.75 C10.58984375 46.96875 10.58984375 46.96875 13.3125 45.75 C15.2925 47.73 15.2925 47.73 17.3125 49.75 C15.58460606 55.76713655 12.74541748 61.18309896 9.9375 66.75 C9.14762695 68.32612061 9.14762695 68.32612061 8.34179688 69.93408203 C4.19319369 78.1513183 -0.1542509 86.24846407 -4.67724609 94.265625 C-10.35343103 104.44010334 -13.63278578 114.65099795 -16.29736328 125.94433594 C-16.810416 128.11617808 -17.33589845 130.28472316 -17.86328125 132.453125 C-19.80304455 140.50896128 -21.47626399 148.54618269 -22.6875 156.75 C1.9400204 127.03033269 1.9400204 127.03033269 14.6875 92.5625 C15.20214172 85.60331497 15.70507229 81.06771352 21.125 76.25 C24.85798931 74.49329915 26.43258965 74.45669655 30.3125 75.75 C32.83987004 77.66731521 33.2841847 78.66505409 34.3125 81.75 C33.50805664 83.58081055 33.50805664 83.58081055 32.22265625 85.63671875 C26.24872606 95.6743169 22.86645773 102.65640011 24.10400391 114.53857422 C24.43176575 118.01499904 24.54499113 121.49859666 24.69213867 124.98657227 C24.86302176 128.90995088 25.08754661 132.82938372 25.3125 136.75 C30.51705358 131.87568459 33.91573667 127.07224444 36.375 120.375 C40.93236629 108.05089784 47.35988522 98.99872575 58.4375 91.6875 C62.13991864 90.48018957 64.57339845 90.74331881 68.3125 91.75 C70.3125 94.75 70.3125 94.75 70.3125 97.75 C70.89 97.5025 71.4675 97.255 72.0625 97 C74.3125 96.75 74.3125 96.75 76.52734375 98.2265625 C78.3125 100.75 78.3125 100.75 78.08203125 104.5703125 C77.78636385 106.01019947 77.46644554 107.44527673 77.125 108.875 C76.97224609 109.60332031 76.81949219 110.33164063 76.66210938 111.08203125 C75.53918933 116.29662135 75.53918933 116.29662135 74.3125 118.75 C80.9994555 114.07983292 86.44035769 108.70327182 91.93164062 102.70117188 C96.62319254 97.79658768 96.62319254 97.79658768 100.14453125 97.55859375 C102.3125 98.75 102.3125 98.75 103.7421875 100.390625 C104.57849468 103.85041634 103.57216448 106.16275153 102.4375 109.5 C102.04820312 110.67046875 101.65890625 111.8409375 101.2578125 113.046875 C100.78988281 114.38492188 100.78988281 114.38492188 100.3125 115.75 C100.99119141 115.09257812 100.99119141 115.09257812 101.68359375 114.421875 C106.86364331 109.60413515 112.34827844 105.44863661 118.125 101.375 C118.86613037 100.85131836 119.60726074 100.32763672 120.37084961 99.78808594 C129.4894705 93.42649836 129.4894705 93.42649836 135.3125 93.75 C137.28007629 97.16411464 137.35013807 98.5858244 136.45385742 102.49536133 C135.95828576 103.94661897 135.44520939 105.39197663 134.91796875 106.83203125 C134.51775261 107.99154549 134.51775261 107.99154549 134.10945129 109.17448425 C133.25514987 111.6429 132.37912536 114.10282715 131.5 116.5625 C130.63462399 119.01234691 129.77423444 121.46369289 128.92268372 123.91838074 C128.3927485 125.44301931 127.85456741 126.96482642 127.3066864 128.48310852 C125.63350351 133.25922427 124.78538405 137.70791372 124.3125 142.75 C124.70405273 142.32291748 125.09560547 141.89583496 125.49902344 141.45581055 C165.26417571 98.21439934 165.26417571 98.21439934 185.3125 96.75 C187.625 98.6875 187.625 98.6875 189.3125 100.75 C187.8418289 105.31627951 184.19839793 106.82749391 180.25 109 C166.16588178 117.14225012 155.82744035 128.16526977 150.3125 143.75 C149.46394865 147.0642372 148.80444413 150.36513068 148.3125 153.75 C164.51662013 145.25359188 177.27633097 131.11840744 185.3125 114.75 C187.2925 114.75 189.2725 114.75 191.3125 114.75 C192.52709238 120.32069015 192.13469652 123.19410953 189.515625 128.23046875 C189.05913826 129.13207481 189.05913826 129.13207481 188.59342957 130.05189514 C187.93840079 131.34475889 187.27614804 132.63398339 186.60739136 133.9197998 C184.81046632 137.38968783 183.08788176 140.8960882 181.36328125 144.40234375 C181.01302383 145.11290924 180.66276642 145.82347473 180.30189514 146.55557251 C171.44385485 164.64795598 165.17528523 183.76266729 158.9375 202.875 C158.64213348 203.77980103 158.34676697 204.68460205 158.04244995 205.61682129 C157.18125897 208.26613011 156.32683729 210.91748116 155.4765625 213.5703125 C155.06661797 214.84563843 155.06661797 214.84563843 154.64839172 216.14672852 C153.3040484 220.39091627 152.05784738 224.63618014 150.96386719 228.95214844 C150.75096039 229.77995819 150.53805359 230.60776794 150.31869507 231.46066284 C149.92515038 233.01897333 149.54852955 234.58169649 149.19229126 236.1489563 C148.28242736 239.75717439 147.68670542 241.46860469 144.66259766 243.74267578 C143.88706543 244.07509277 143.1115332 244.40750977 142.3125 244.75 C140.9925 243.76 139.6725 242.77 138.3125 241.75 C138.87434665 236.33457899 139.84370659 231.31908151 141.46484375 226.11328125 C141.68046967 225.40388397 141.89609558 224.69448669 142.11825562 223.96359253 C142.82126645 221.66082451 143.53486016 219.3615278 144.25 217.0625 C144.49382416 216.27187164 144.73764832 215.48124329 144.98886108 214.66665649 C151.32730038 194.12134376 157.89859994 173.55344769 166.3125 153.75 C165.11753906 154.58144531 165.11753906 154.58144531 163.8984375 155.4296875 C162.83882813 156.15414062 161.77921875 156.87859375 160.6875 157.625 C159.12128906 158.70394531 159.12128906 158.70394531 157.5234375 159.8046875 C151.38462074 163.52382466 147.18889872 164.23988639 140.3125 162.75 C137.13865873 157.9892381 138.49280856 153.24063152 139.3125 147.75 C140.16542751 144.03303171 141.17354503 140.3889253 142.3125 136.75 C136.09236749 143.41552472 130.37329193 150.34923814 124.79296875 157.55078125 C124.37313721 158.09162354 123.95330566 158.63246582 123.52075195 159.18969727 C122.38228754 160.65987833 121.24954707 162.13448674 120.1171875 163.609375 C118.3125 165.75 118.3125 165.75 116.25 166.6875 C114.3125 166.75 114.3125 166.75 111.3125 164.75 C110.73295491 157.62374182 111.95237522 150.96972072 113.375 144 C113.7002063 142.38073608 113.7002063 142.38073608 114.03198242 140.72875977 C116.27110001 130.09976118 119.59371923 119.94181704 123.3125 109.75 C111.74399351 117.99229938 102.72446836 125.85018792 94.359375 137.4609375 C93.76640625 138.27820313 93.1734375 139.09546875 92.5625 139.9375 C91.79679687 141.04158203 91.79679687 141.04158203 91.015625 142.16796875 C89.3125 143.75 89.3125 143.75 86.734375 144.17578125 C85.53554688 143.96501953 85.53554688 143.96501953 84.3125 143.75 C82.3125 140.75 82.3125 140.75 82.44921875 138.875 C82.72185547 137.823125 82.72185547 137.823125 83 136.75 C83.19722656 135.96753906 83.39445313 135.18507812 83.59765625 134.37890625 C83.83355469 133.51136719 84.06945312 132.64382812 84.3125 131.75 C84.57933594 130.74839844 84.84617187 129.74679688 85.12109375 128.71484375 C85.83813973 126.05594121 86.56905433 123.40162288 87.3125 120.75 C86.80460938 121.24371094 86.29671875 121.73742187 85.7734375 122.24609375 C78.78533702 128.75 78.78533702 128.75 73.3125 128.75 C72.6525 128.42 71.9925 128.09 71.3125 127.75 C71.20164062 128.61753906 71.09078125 129.48507813 70.9765625 130.37890625 C69.28309447 138.97574692 64.49806912 147.58143273 57.3125 152.75 C53.28939461 154.65183164 50.53066743 155.11037852 46.3125 153.875 C41.39520046 151.76075253 38.54469427 147.86449595 35.3125 143.75 C34.6525 143.09 33.9925 142.43 33.3125 141.75 C29.85623045 144.41213973 26.79799221 147.26659235 25.93115234 151.70068359 C25.65484147 154.66749593 25.55762966 157.60266636 25.57641602 160.58178711 C25.5802486 165.39167983 25.00703066 168.58180154 22.3125 172.75 C17.60315769 177.03517522 10.44127121 180.2103087 4.3125 181.75 C-0.24684959 181.19065041 -0.24684959 181.19065041 -1.6875 179.75 C-1.31722459 174.3372468 0.13857347 170.64817658 2.875 166 C3.51566406 164.89140625 4.15632812 163.7828125 4.81640625 162.640625 C6.19131676 160.34189891 7.609667 158.40839517 9.37451172 156.37963867 C14.97179721 149.72569129 16.14202885 145.12641287 15.66015625 136.47460938 C15.54542969 135.18361328 15.43070313 133.89261719 15.3125 132.5625 C15.22391715 131.21574863 15.13925561 129.86873337 15.05859375 128.52148438 C14.84815224 125.25964089 14.59881813 122.00591005 14.3125 118.75 C13.72984375 119.77996094 13.1471875 120.80992188 12.546875 121.87109375 C-12.62602355 165.8233602 -12.62602355 165.8233602 -23.5625 170.5625 C-27.11375138 170.87584571 -29.58657638 169.47129478 -32.5 167.5625 C-35.50445101 162.97675898 -33.29466398 156.04195567 -32.265625 151.02539062 C-32.07484375 150.13013672 -31.8840625 149.23488281 -31.6875 148.3125 C-31.49671875 147.39017578 -31.3059375 146.46785156 -31.109375 145.51757812 C-30.64155792 143.26036071 -30.16747253 141.0046582 -29.6875 138.75 C-30.3165625 139.78898438 -30.945625 140.82796875 -31.59375 141.8984375 C-46.40556731 166.13384079 -46.40556731 166.13384079 -54.6875 170.75 C-58 170.8125 -58 170.8125 -60.6875 169.75 C-65.69363442 162.24079836 -62.33546079 150.94741563 -60.6875 142.625 C-60.15119074 140.0188367 -59.61267365 137.41362216 -59.0546875 134.81201172 C-58.59984272 132.60681869 -58.59984272 132.60681869 -58.6875 129.75 C-59.13029297 130.59594727 -59.57308594 131.44189453 -60.02929688 132.31347656 C-61.70749243 135.51526984 -63.39452789 138.71233962 -65.08398438 141.90820312 C-65.80767781 143.28001848 -66.52911295 144.65302808 -67.24804688 146.02734375 C-73.33602193 157.65911732 -79.78468833 168.85288539 -88.4375 178.8125 C-88.89253906 179.35326172 -89.34757812 179.89402344 -89.81640625 180.45117188 C-95.91016678 187.57226668 -95.91016678 187.57226668 -100.8125 188.0625 C-103.6875 187.75 -103.6875 187.75 -105.6875 185.75 C-106.89889164 176.61111894 -104.87922678 166.8262763 -103.6875 157.75 C-104.35136719 158.70261719 -105.01523438 159.65523437 -105.69921875 160.63671875 C-106.59088782 161.90382743 -107.48282944 163.17074436 -108.375 164.4375 C-108.81005859 165.06333984 -109.24511719 165.68917969 -109.69335938 166.33398438 C-113.62098105 171.89084171 -117.62336411 176.45804052 -123.6875 179.75 C-125.3375 178.76 -126.9875 177.77 -128.6875 176.75 C-128.625 174.625 -128.625 174.625 -127.6875 171.75 C-126.24487305 170.40063477 -126.24487305 170.40063477 -124.44921875 169.00390625 C-120.79226934 165.96629768 -118.18850122 162.75328614 -115.5625 158.8125 C-115.1094751 158.14589355 -114.6564502 157.47928711 -114.18969727 156.79248047 C-109.36318465 149.53271331 -105.13159486 141.92500675 -100.92724609 134.29321289 C-100.40340332 133.34309326 -99.87956055 132.39297363 -99.33984375 131.4140625 C-98.64362915 130.13716553 -98.64362915 130.13716553 -97.93334961 128.83447266 C-96.6875 126.75 -96.6875 126.75 -94.6875 124.75 C-92.0625 124.625 -92.0625 124.625 -89.6875 124.75 C-87.01352328 129.58400523 -87.96244184 133.2632257 -89.0234375 138.41015625 C-89.18163971 139.23704453 -89.33984192 140.0639328 -89.50283813 140.9158783 C-90.00940585 143.55087931 -90.53511579 146.18159381 -91.0625 148.8125 C-91.57907345 151.44755367 -92.09162982 154.08332757 -92.60073853 156.71983337 C-92.91831803 158.35801747 -93.24086035 159.99524918 -93.56893921 161.63136292 C-94.25131684 165.09605718 -94.6875 168.20337318 -94.6875 171.75 C-87.52511228 162.666972 -82.11331116 152.92679404 -76.6875 142.75 C-76.36465027 142.14470459 -76.04180054 141.53940918 -75.70916748 140.91577148 C-72.24915718 134.42596328 -68.79548902 127.93288644 -65.37597656 121.42163086 C-64.59836712 119.94121206 -63.82069857 118.46082431 -63.04296875 116.98046875 C-62.66439728 116.25983749 -62.28582581 115.53920624 -61.89578247 114.79673767 C-59.77179717 110.76641159 -57.60080419 106.7696792 -55.36328125 102.80078125 C-49.68726555 92.63926806 -45.83954164 82.6708314 -42.59863281 71.48608398 C-36.28284931 49.73976623 -27.06391458 27.47264901 -12.6875 9.75 C-12.130625 9.05390625 -11.57375 8.3578125 -11 7.640625 C-4.35093923 -0.40473853 -4.35093923 -0.40473853 0 0 Z M61.91723633 109.10766602 C61.33224365 109.73342529 60.74725098 110.35918457 60.14453125 111.00390625 C59.49806641 111.69419922 58.85160156 112.38449219 58.18554688 113.09570312 C57.50556641 113.82724609 56.82558594 114.55878906 56.125 115.3125 C55.46435547 116.01697266 54.80371094 116.72144531 54.12304688 117.44726562 C52.17275278 119.53617884 50.24169341 121.64160829 48.3125 123.75 C47.41156616 124.70374512 47.41156616 124.70374512 46.49243164 125.67675781 C43.35470547 129.02696792 43.35470547 129.02696792 41.76953125 133.2265625 C42.64531378 138.51975361 43.86103323 141.35840627 48.3125 144.75 C49.3025 145.08 50.2925 145.41 51.3125 145.75 C58.4015607 141.35455696 61.69325062 132.62824498 64.23828125 124.9609375 C65.60615017 119.09864213 65.24360128 113.66375138 64.3125 107.75 C63.10748339 107.63376924 63.10748339 107.63376924 61.91723633 109.10766602 Z M-57.6875 125.75 C-56.6875 127.75 -56.6875 127.75 -56.6875 127.75 Z M15.3125 162.75 C13.8275 165.225 13.8275 165.225 12.3125 167.75 C13.6325 167.09 14.9525 166.43 16.3125 165.75 C15.9825 164.76 15.6525 163.77 15.3125 162.75 Z " fill="#F6F6F6" transform="translate(258.6875,1.25)"/>
<path d="M0 0 C0.721875 0.165 1.44375 0.33 2.1875 0.5 C3.34741211 2.61108398 3.34741211 2.61108398 4.1875 5.5 C3.27563477 8.43383789 3.27563477 8.43383789 1.62890625 11.72265625 C1.33396774 12.3275589 1.03902924 12.93246155 0.7351532 13.55569458 C0.09247088 14.87175275 -0.55772928 16.18415998 -1.21447754 17.49325562 C-3.00235348 21.06589879 -4.72415673 24.67014962 -6.44921875 28.2734375 C-6.8109317 29.02656723 -7.17264465 29.77969696 -7.5453186 30.5556488 C-11.48857805 38.81941605 -15.06189603 47.22842859 -18.5625 55.6875 C-18.87179443 56.43359528 -19.18108887 57.17969055 -19.49975586 57.94839478 C-25.5893249 72.67754987 -31.29382379 87.54842042 -36.8125 102.5 C-35.54535156 102.13648437 -34.27820313 101.77296875 -32.97265625 101.3984375 C-30.81274414 100.77880859 -30.81274414 100.77880859 -28.8125 100.5 C-26.25 102.125 -26.25 102.125 -24.8125 104.5 C-24.7746582 106.50830078 -24.7746582 106.50830078 -25.8125 108.5 C-27.49534971 109.10567493 -29.18763432 109.69522708 -30.91413879 110.16213989 C-36.23199774 111.65493699 -39.86846071 113.09348423 -43.01025391 117.77441406 C-44.81406997 121.92585007 -45.96454399 126.25967225 -47.125 130.625 C-47.60084343 132.23901669 -48.08173967 133.85155133 -48.56738281 135.46264648 C-49.80978176 139.63819131 -50.97753418 143.83093271 -52.12823486 148.03253174 C-52.997961 151.16877457 -53.91439753 154.29011671 -54.83532715 157.41163635 C-67.2887448 199.64207745 -75.93414748 242.8472419 -81.85986328 286.45166016 C-81.97675003 287.29479263 -82.09363678 288.13792511 -82.21406555 289.00660706 C-82.43216292 290.58367431 -82.64444353 292.16156139 -82.84977722 293.74034119 C-83.78763412 300.48665426 -83.78763412 300.48665426 -85.8125 303.5 C-87.75 304.375 -87.75 304.375 -89.8125 304.5 C-92.8125 302.5 -92.8125 302.5 -93.21313477 300.63671875 C-93.12298629 290.47526352 -91.35659425 280.50919128 -89.75 270.5 C-89.59288544 269.50746216 -89.43577087 268.51492432 -89.27389526 267.49230957 C-81.29759149 217.20295122 -69.61899571 167.60307021 -52.8125 119.5 C-66.57061616 124.41303667 -80.19006488 129.48245388 -93.5625 135.375 C-95.10345337 136.05236206 -95.10345337 136.05236206 -96.67553711 136.7434082 C-99.40760993 137.96450857 -102.1256457 139.18220889 -104.8125 140.5 C-105.98997803 140.983479 -107.16745605 141.46695801 -108.38061523 141.96508789 C-113.44037406 144.9244869 -114.35285277 150.17642636 -115.92578125 155.50390625 C-116.26626999 156.57873764 -116.60675873 157.65356903 -116.95756531 158.76097107 C-118.03796004 162.18769284 -119.0824408 165.62409886 -120.125 169.0625 C-121.19265829 172.50182488 -122.26751313 175.9387949 -123.34599304 179.3747406 C-124.01391447 181.51132976 -124.6741748 183.65033198 -125.32600403 185.79188538 C-125.62359116 186.75976486 -125.92117828 187.72764435 -126.2277832 188.72485352 C-126.48646683 189.5766066 -126.74515045 190.42835968 -127.01167297 191.30592346 C-127.8125 193.5 -127.8125 193.5 -129.8125 196.5 C-132.3125 196.8125 -132.3125 196.8125 -134.8125 196.5 C-135.8025 195.51 -135.8025 195.51 -136.8125 194.5 C-136.46781142 188.79627048 -135.13106948 183.73998546 -133.30859375 178.3515625 C-133.0658522 177.6129599 -132.82311066 176.8743573 -132.57301331 176.1133728 C-131.80555951 173.78157174 -131.02839006 171.45317072 -130.25 169.125 C-129.46960712 166.77492869 -128.69132779 164.42419513 -127.91627502 162.07235718 C-127.43563193 160.61550319 -126.95164292 159.15974793 -126.463974 157.70523071 C-125.23384981 154.17867308 -125.23384981 154.17867308 -124.8125 150.5 C-128.87864275 152.65986801 -132.94046007 154.82775353 -137 157 C-137.59630219 157.31857971 -138.19260437 157.63715942 -138.80697632 157.96539307 C-146.53801546 162.10196024 -154.12091876 166.33839798 -161.39453125 171.2421875 C-164.14258298 172.67170714 -165.75803806 172.92523918 -168.8125 172.5 C-169.4725 171.84 -170.1325 171.18 -170.8125 170.5 C-170.63004995 167.70094922 -170.37982436 166.07350773 -168.37890625 164.05078125 C-160.88939942 159.42276241 -153.1931975 155.17139132 -145.46728516 150.953125 C-142.5813051 149.373453 -139.70262475 147.78092802 -136.82421875 146.1875 C-134.82050071 145.08299182 -132.8165973 143.97881986 -130.8125 142.875 C-129.85061768 142.34181152 -128.88873535 141.80862305 -127.89770508 141.25927734 C-127.0033374 140.7689502 -126.10896973 140.27862305 -125.1875 139.7734375 C-124.39085937 139.33435059 -123.59421875 138.89526367 -122.7734375 138.44287109 C-120.8125 137.5 -120.8125 137.5 -118.8125 137.5 C-118.70111694 136.94833664 -118.58973389 136.39667328 -118.47497559 135.82829285 C-117.33273453 130.40807714 -115.83854085 125.26073049 -113.96875 120.05078125 C-113.54652412 118.85747444 -113.54652412 118.85747444 -113.11576843 117.64006042 C-112.18819419 115.02837172 -111.25123613 112.42019601 -110.3125 109.8125 C-109.99068756 108.91402344 -109.66887512 108.01554687 -109.33731079 107.08984375 C-103.79374348 91.63544111 -97.96669459 76.29554783 -92 61 C-91.60441895 59.98193268 -91.20883789 58.96386536 -90.80126953 57.91494751 C-89.67987999 55.0344978 -88.55059105 52.1572987 -87.41796875 49.28125 C-87.08214279 48.41864059 -86.74631683 47.55603119 -86.40031433 46.6672821 C-85.93181816 45.48716301 -85.93181816 45.48716301 -85.45385742 44.28320312 C-85.04873177 43.25410828 -85.04873177 43.25410828 -84.63542175 42.20422363 C-83.8125 40.5 -83.8125 40.5 -81.8125 38.5 C-79.3125 38.25 -79.3125 38.25 -76.8125 38.5 C-76.1525 39.16 -75.4925 39.82 -74.8125 40.5 C-75.15822124 45.75805145 -77.17338959 50.42714747 -79.1015625 55.26953125 C-79.60507484 56.55657204 -79.60507484 56.55657204 -80.11875916 57.86961365 C-80.84318187 59.72105657 -81.56996345 61.57157793 -82.29885864 63.42126465 C-84.2356261 68.33909983 -86.15247003 73.26464779 -88.06640625 78.19140625 C-88.65557076 79.70781204 -88.65557076 79.70781204 -89.25663757 81.25485229 C-93.4311324 92.03713532 -97.42223379 102.88480689 -101.375 113.75 C-101.70373108 114.65319977 -102.03246216 115.55639954 -102.37115479 116.48696899 C-104.19058282 121.48927893 -106.00428806 126.49362534 -107.8125 131.5 C-106.834021 131.02111328 -105.85554199 130.54222656 -104.84741211 130.04882812 C-94.12857147 124.8686624 -83.22748338 120.34407997 -72.12280273 116.06054688 C-69.32311157 114.97997305 -66.52760518 113.88905038 -63.73242188 112.796875 C-61.94814783 112.10357146 -60.16365124 111.41084031 -58.37890625 110.71875 C-57.5457338 110.39386597 -56.71256134 110.06898193 -55.85414124 109.73425293 C-50.04431197 107.5 -50.04431197 107.5 -47.8125 107.5 C-47.69874023 106.65300537 -47.58498047 105.80601074 -47.46777344 104.93334961 C-46.76771642 101.2653534 -45.66019166 98.05426815 -44.328125 94.56640625 C-44.07653625 93.90471939 -43.82494751 93.24303253 -43.56573486 92.56129456 C-42.73806696 90.39237448 -41.90108404 88.22722107 -41.0625 86.0625 C-40.77383057 85.31313171 -40.48516113 84.56376343 -40.18774414 83.79168701 C-32.02196714 62.60967045 -23.31975338 41.67872747 -13.8125 21.0625 C-13.28462891 19.91346191 -12.75675781 18.76442383 -12.21289062 17.58056641 C-4.35940151 0.77500471 -4.35940151 0.77500471 0 0 Z " fill="#F4F4F4" transform="translate(172.8125,25.5)"/>
<path d="M0 0 C3.0625 0.5625 3.0625 0.5625 5.5 2.625 C7.53881034 6.45796344 7.21081346 8.42857156 6.0625 12.5625 C4.875 14.5 4.875 14.5 3.0625 15.5625 C0.0625 16 0.0625 16 -2.9375 15.5625 C-5.74622754 13.22189372 -5.92185997 11.70847363 -6.3125 8.0625 C-5.78584118 3.1470177 -5.03912517 0.96493886 0 0 Z " fill="#F8F8F8" transform="translate(177.9375,89.4375)"/>
<path d="M0 0 C1 3 1 3 0.22265625 4.82421875 C-0.8515625 6.54947917 -1.92578125 8.27473958 -3 10 C-3.33 9.34 -3.66 8.68 -4 8 C-3.22265625 6.0546875 -3.22265625 6.0546875 -2.0625 3.875 C-1.49208984 2.78832031 -1.49208984 2.78832031 -0.91015625 1.6796875 C-0.60980469 1.12539063 -0.30945313 0.57109375 0 0 Z " fill="#C9C9C9" transform="translate(449,277)"/>
<path d="M0 0 C2.15377564 2.62198774 3.40072174 4.64404172 4 8 C1.10067643 5.60490662 0.49831724 3.68754757 0 0 Z " fill="#C9C9C9" transform="translate(11,278)"/>
<path d="M0 0 C2.5654594 2.5654594 2.54046087 4.47686668 3 8 C0.4345406 5.4345406 0.45953913 3.52313332 0 0 Z " fill="#DEDEDE" transform="translate(0,252)"/>
<path d="M0 0 C0 0.99 0 1.98 0 3 C-2 4.6875 -2 4.6875 -4 6 C-2.84826645 3.53199953 -1.95216435 1.95216435 0 0 Z " fill="#CACACA" transform="translate(51,6)"/>
<path d="M0 0 C1.5625 1.8125 1.5625 1.8125 3 4 C2.67 4.99 2.34 5.98 2 7 C0.5393715 4.35261084 0 3.10551666 0 0 Z " fill="#E6E6E6" transform="translate(5,265)"/>
<path d="M0 0 C0.33 0.99 0.66 1.98 1 3 C-0.4375 5.1875 -0.4375 5.1875 -2 7 C-1.125 2.25 -1.125 2.25 0 0 Z " fill="#DEDEDE" transform="translate(9,68)"/>
<path d="M0 0 C1.98 0.99 1.98 0.99 4 2 C4 2.99 4 3.98 4 5 C2.68 3.35 1.36 1.7 0 0 Z " fill="#D4D4D4" transform="translate(402,0)"/>
<path d="M0 0 C0.33 0.66 0.66 1.32 1 2 C0.01 2.99 -0.98 3.98 -2 5 C-1.34 3.35 -0.68 1.7 0 0 Z " fill="#D1D1D1" transform="translate(442,291)"/>
<path d="M0 0 C0.33 0.66 0.66 1.32 1 2 C0.01 2.99 -0.98 3.98 -2 5 C-1.34 3.35 -0.68 1.7 0 0 Z " fill="#C8C8C8" transform="translate(17,53)"/>
<path d="M0 0 C0.99 0.99 1.98 1.98 3 3 C2.67 3.66 2.34 4.32 2 5 C1.34 3.35 0.68 1.7 0 0 Z " fill="#D2D2D2" transform="translate(442,52)"/>
<path d="M0 0 C0 0.99 0 1.98 0 3 C-0.99 3.495 -0.99 3.495 -2 4 C-1.34 2.68 -0.68 1.36 0 0 Z " fill="#C1C1C1" transform="translate(418,326)"/>
<path d="M0 0 C1.485 0.99 1.485 0.99 3 2 C2.67 2.66 2.34 3.32 2 4 C1.34 2.68 0.68 1.36 0 0 Z " fill="#C9C9C9" transform="translate(39,323)"/>
<path d="M0 0 C0 0.99 0 1.98 0 3 C-0.99 3.495 -0.99 3.495 -2 4 C-1.34 2.68 -0.68 1.36 0 0 Z " fill="#C1C1C1" transform="translate(422,321)"/>
<path d="M0 0 C0.66 0.66 1.32 1.32 2 2 C1.67 2.99 1.34 3.98 1 5 C0.67 3.35 0.34 1.7 0 0 Z " fill="#E5E5E5" transform="translate(3,260)"/>
<path d="M0 0 C0.33 0.99 0.66 1.98 1 3 C0.34 3.66 -0.32 4.32 -1 5 C-0.67 3.35 -0.34 1.7 0 0 Z " fill="#E5E5E5" transform="translate(3,82)"/>
<path d="M0 0 C0.33 0.99 0.66 1.98 1 3 C0.34 3.66 -0.32 4.32 -1 5 C-0.67 3.35 -0.34 1.7 0 0 Z " fill="#E5E5E5" transform="translate(5,77)"/>
<path d="M0 0 C1.485 0.99 1.485 0.99 3 2 C2.67 2.66 2.34 3.32 2 4 C1.34 2.68 0.68 1.36 0 0 Z " fill="#C1C1C1" transform="translate(418,17)"/>
<path d="M0 0 C1.485 0.99 1.485 0.99 3 2 C2.67 2.66 2.34 3.32 2 4 C1.34 2.68 0.68 1.36 0 0 Z " fill="#AAAAAA" transform="translate(444,14)"/>
<path d="M0 0 C0 0.99 0 1.98 0 3 C-0.99 3.495 -0.99 3.495 -2 4 C-1.34 2.68 -0.68 1.36 0 0 Z " fill="#B7B7B7" transform="translate(44,14)"/>
<path d="M0 0 C1.485 0.99 1.485 0.99 3 2 C2.67 2.66 2.34 3.32 2 4 C1.34 2.68 0.68 1.36 0 0 Z " fill="#C1C1C1" transform="translate(413,11)"/>
<path d="M0 0 C0.99 0.99 1.98 1.98 3 3 C2.01 2.67 1.02 2.34 0 2 C0 1.34 0 0.68 0 0 Z " fill="#C0C0C0" transform="translate(44,329)"/>
<path d="M0 0 C0.66 0.33 1.32 0.66 2 1 C1.01 1.66 0.02 2.32 -1 3 C-0.67 2.01 -0.34 1.02 0 0 Z " fill="#ACACAC" transform="translate(26,0)"/>
<path d="M0 0 C0 3 0 3 0 3 Z " fill="#9E9E9E" transform="translate(444,329)"/>
<path d="M0 0 C0.99 0.495 0.99 0.495 2 1 C1.67 1.66 1.34 2.32 1 3 C0.67 2.01 0.34 1.02 0 0 Z " fill="#A6A6A6" transform="translate(14,327)"/>
<path d="M0 0 C0 3 0 3 0 3 Z " fill="#B6B6B6" transform="translate(447,325)"/>
<path d="M0 0 C0.99 0.495 0.99 0.495 2 1 C1.67 1.66 1.34 2.32 1 3 C0.67 2.01 0.34 1.02 0 0 Z " fill="#B6B6B6" transform="translate(11,323)"/>
<path d="M0 0 C0 3 0 3 0 3 Z " fill="#AEAEAE" transform="translate(450,321)"/>
<path d="M0 0 C0.99 0.495 0.99 0.495 2 1 C1.67 1.66 1.34 2.32 1 3 C0.67 2.01 0.34 1.02 0 0 Z " fill="#DADADA" transform="translate(36,319)"/>
<path d="M0 0 C0 3 0 3 0 3 Z " fill="#EAEAEA" transform="translate(425,317)"/>
<path d="M0 0 C0.99 0.495 0.99 0.495 2 1 C1.67 1.66 1.34 2.32 1 3 C0.67 2.01 0.34 1.02 0 0 Z " fill="#EAEAEA" transform="translate(33,315)"/>
<path d="M0 0 C0 3 0 3 0 3 Z " fill="#E2E2E2" transform="translate(428,313)"/>
<path d="M0 0 C0.99 0.495 0.99 0.495 2 1 C1.67 1.66 1.34 2.32 1 3 C0.67 2.01 0.34 1.02 0 0 Z " fill="#AEAEAE" transform="translate(3,311)"/>
<path d="M0 0 C0.99 0.495 0.99 0.495 2 1 C1.67 1.66 1.34 2.32 1 3 C0.67 2.01 0.34 1.02 0 0 Z " fill="#EAEAEA" transform="translate(30,311)"/>
<path d="M0 0 C0 3 0 3 0 3 Z " fill="#D1D1D1" transform="translate(430,310)"/>
<path d="M0 0 C0.99 0.495 0.99 0.495 2 1 C1.67 1.66 1.34 2.32 1 3 C0.67 2.01 0.34 1.02 0 0 Z " fill="#DADADA" transform="translate(28,308)"/>
<path d="M0 0 C0.99 0.495 0.99 0.495 2 1 C1.67 1.66 1.34 2.32 1 3 C0.67 2.01 0.34 1.02 0 0 Z " fill="#DADADA" transform="translate(26,305)"/>
<path d="M0 0 C0.99 0.495 0.99 0.495 2 1 C1.67 1.66 1.34 2.32 1 3 C0.67 2.01 0.34 1.02 0 0 Z " fill="#DADADA" transform="translate(24,302)"/>
<path d="M0 0 C0 3 0 3 0 3 Z " fill="#C1C1C1" transform="translate(436,301)"/>
<path d="M0 0 C0 3 0 3 0 3 Z " fill="#DADADA" transform="translate(438,298)"/>
<path d="M0 0 C0.99 0.495 0.99 0.495 2 1 C1.67 1.66 1.34 2.32 1 3 C0.67 2.01 0.34 1.02 0 0 Z " fill="#CBCBCB" transform="translate(21,297)"/>
<path d="M0 0 C0.99 0.495 0.99 0.495 2 1 C1.67 1.66 1.34 2.32 1 3 C0.67 2.01 0.34 1.02 0 0 Z " fill="#DADADA" transform="translate(18,292)"/>
<path d="M0 0 C0.99 0.495 0.99 0.495 2 1 C1.67 1.66 1.34 2.32 1 3 C0.67 2.01 0.34 1.02 0 0 Z " fill="#CACACA" transform="translate(439,47)"/>
<path d="M0 0 C0 3 0 3 0 3 Z " fill="#DADADA" transform="translate(21,46)"/>
<path d="M0 0 C0.99 0.495 0.99 0.495 2 1 C1.67 1.66 1.34 2.32 1 3 C0.67 2.01 0.34 1.02 0 0 Z " fill="#CBCBCB" transform="translate(436,42)"/>
<path d="M0 0 C0 3 0 3 0 3 Z " fill="#DADADA" transform="translate(24,41)"/>
<path d="M0 0 C0.99 0.495 0.99 0.495 2 1 C1.67 1.66 1.34 2.32 1 3 C0.67 2.01 0.34 1.02 0 0 Z " fill="#C1C1C1" transform="translate(434,39)"/>
<path d="M0 0 C0 3 0 3 0 3 Z " fill="#DADADA" transform="translate(26,38)"/>
<path d="M0 0 C0 3 0 3 0 3 Z " fill="#DADADA" transform="translate(28,35)"/>
<path d="M0 0 C0.99 0.495 0.99 0.495 2 1 C1.67 1.66 1.34 2.32 1 3 C0.67 2.01 0.34 1.02 0 0 Z " fill="#C1C1C1" transform="translate(430,33)"/>
<path d="M0 0 C0 3 0 3 0 3 Z " fill="#E2E2E2" transform="translate(30,32)"/>
<path d="M0 0 C0 3 0 3 0 3 Z " fill="#AEAEAE" transform="translate(3,32)"/>
<path d="M0 0 C0.99 0.495 0.99 0.495 2 1 C1.67 1.66 1.34 2.32 1 3 C0.67 2.01 0.34 1.02 0 0 Z " fill="#DADADA" transform="translate(428,30)"/>
<path d="M0 0 C0 3 0 3 0 3 Z " fill="#AEAEAE" transform="translate(5,29)"/>
<path d="M0 0 C0 3 0 3 0 3 Z " fill="#D8D8D8" transform="translate(33,28)"/>
<path d="M0 0 C0.99 0.495 0.99 0.495 2 1 C1.67 1.66 1.34 2.32 1 3 C0.67 2.01 0.34 1.02 0 0 Z " fill="#E2E2E2" transform="translate(425,26)"/>
<path d="M0 0 C0 3 0 3 0 3 Z " fill="#DADADA" transform="translate(36,24)"/>
<path d="M0 0 C0.99 0.495 0.99 0.495 2 1 C1.67 1.66 1.34 2.32 1 3 C0.67 2.01 0.34 1.02 0 0 Z " fill="#C1C1C1" transform="translate(422,22)"/>
<path d="M0 0 C0.99 0.495 0.99 0.495 2 1 C1.67 1.66 1.34 2.32 1 3 C0.67 2.01 0.34 1.02 0 0 Z " fill="#AEAEAE" transform="translate(450,22)"/>
<path d="M0 0 C0 3 0 3 0 3 Z " fill="#C1C1C1" transform="translate(39,20)"/>
<path d="M0 0 C0 3 0 3 0 3 Z " fill="#9E9E9E" transform="translate(13,17)"/>
<path d="M0 0 C0 3 0 3 0 3 Z " fill="#B6B6B6" transform="translate(17,12)"/>
<path d="M0 0 C0.99 0.495 0.99 0.495 2 1 C1.67 1.66 1.34 2.32 1 3 C0.67 2.01 0.34 1.02 0 0 Z " fill="#C1C1C1" transform="translate(441,10)"/>
<path d="M0 0 C0 3 0 3 0 3 Z " fill="#B6B6B6" transform="translate(20,8)"/>
<path d="M0 0 C0.99 0.495 0.99 0.495 2 1 C1.67 1.66 1.34 2.32 1 3 C0.67 2.01 0.34 1.02 0 0 Z " fill="#B6B6B6" transform="translate(438,6)"/>
<path d="M0 0 C0 3 0 3 0 3 Z " fill="#B6B6B6" transform="translate(23,4)"/>
<path d="M0 0 C0.99 0.495 0.99 0.495 2 1 C1.67 1.66 1.34 2.32 1 3 C0.67 2.01 0.34 1.02 0 0 Z " fill="#A6A6A6" transform="translate(435,2)"/>
<path d="" fill="#D0D0D0" transform="translate(0,0)"/>
<path d="" fill="#E5E5E5" transform="translate(0,0)"/>
<path d="" fill="#DBDBDB" transform="translate(0,0)"/>
<path d="" fill="#AAAAAA" transform="translate(0,0)"/>
<path d="" fill="#CACACA" transform="translate(0,0)"/>
<path d="" fill="#AAAAAA" transform="translate(0,0)"/>
<path d="" fill="#9A9A9A" transform="translate(0,0)"/>
<path d="" fill="#CACACA" transform="translate(0,0)"/>
<path d="" fill="#D8D8D8" transform="translate(0,0)"/>
<path d="" fill="#9A9A9A" transform="translate(0,0)"/>
<path d="" fill="#D8D8D8" transform="translate(0,0)"/>
<path d="" fill="#CACACA" transform="translate(0,0)"/>
<path d="" fill="#D8D8D8" transform="translate(0,0)"/>
<path d="" fill="#CACACA" transform="translate(0,0)"/>
<path d="" fill="#EBEBEB" transform="translate(0,0)"/>
<path d="" fill="#D8D8D8" transform="translate(0,0)"/>
<path d="" fill="#CACACA" transform="translate(0,0)"/>
<path d="" fill="#CACACA" transform="translate(0,0)"/>
<path d="" fill="#AAAAAA" transform="translate(0,0)"/>
<path d="" fill="#EAEAEA" transform="translate(0,0)"/>
<path d="" fill="#EAEAEA" transform="translate(0,0)"/>
<path d="" fill="#EAEAEA" transform="translate(0,0)"/>
<path d="" fill="#EAEAEA" transform="translate(0,0)"/>
<path d="" fill="#EAEAEA" transform="translate(0,0)"/>
<path d="" fill="#FAFAFA" transform="translate(0,0)"/>
<path d="" fill="#FAFAFA" transform="translate(0,0)"/>
<path d="" fill="#FAFAFA" transform="translate(0,0)"/>
<path d="" fill="#EAEAEA" transform="translate(0,0)"/>
<path d="" fill="#EAEAEA" transform="translate(0,0)"/>
<path d="" fill="#D8D8D8" transform="translate(0,0)"/>
<path d="" fill="#C8C8C8" transform="translate(0,0)"/>
<path d="" fill="#D8D8D8" transform="translate(0,0)"/>
<path d="" fill="#EBEBEB" transform="translate(0,0)"/>
<path d="" fill="#D8D8D8" transform="translate(0,0)"/>
<path d="" fill="#C8C8C8" transform="translate(0,0)"/>
<path d="" fill="#CACACA" transform="translate(0,0)"/>
<path d="" fill="#CACACA" transform="translate(0,0)"/>
<path d="" fill="#D8D8D8" transform="translate(0,0)"/>
<path d="" fill="#EBEBEB" transform="translate(0,0)"/>
<path d="" fill="#CACACA" transform="translate(0,0)"/>
<path d="" fill="#D8D8D8" transform="translate(0,0)"/>
<path d="" fill="#D8D8D8" transform="translate(0,0)"/>
<path d="" fill="#CACACA" transform="translate(0,0)"/>
<path d="" fill="#AAAAAA" transform="translate(0,0)"/>
<path d="" fill="#AAAAAA" transform="translate(0,0)"/>
<path d="" fill="#AAAAAA" transform="translate(0,0)"/>
<path d="" fill="#AAAAAA" transform="translate(0,0)"/>
<path d="" fill="#AAAAAA" transform="translate(0,0)"/>
<path d="" fill="#D8D8D8" transform="translate(0,0)"/>
<path d="" fill="#D8D8D8" transform="translate(0,0)"/>
<path d="" fill="#F8F8F8" transform="translate(0,0)"/>
<path d="" fill="#B2B2B2" transform="translate(0,0)"/>
<path d="" fill="#B2B2B2" transform="translate(0,0)"/>
<path d="" fill="#B2B2B2" transform="translate(0,0)"/>
<path d="" fill="#F8F8F8" transform="translate(0,0)"/>
<path d="" fill="#B2B2B2" transform="translate(0,0)"/>
<path d="" fill="#D8D8D8" transform="translate(0,0)"/>
<path d="" fill="#B2B2B2" transform="translate(0,0)"/>
<path d="" fill="#F8F8F8" transform="translate(0,0)"/>
<path d="" fill="#B2B2B2" transform="translate(0,0)"/>
<path d="" fill="#F5F5F5" transform="translate(0,0)"/>
<path d="" fill="#B2B2B2" transform="translate(0,0)"/>
<path d="" fill="#F5F5F5" transform="translate(0,0)"/>
<path d="" fill="#F5F5F5" transform="translate(0,0)"/>
<path d="" fill="#B2B2B2" transform="translate(0,0)"/>
<path d="" fill="#F5F5F5" transform="translate(0,0)"/>
<path d="" fill="#F5F5F5" transform="translate(0,0)"/>
<path d="" fill="#B2B2B2" transform="translate(0,0)"/>
<path d="" fill="#F5F5F5" transform="translate(0,0)"/>
<path d="" fill="#F5F5F5" transform="translate(0,0)"/>
<path d="" fill="#F5F5F5" transform="translate(0,0)"/>
<path d="" fill="#F8F8F8" transform="translate(0,0)"/>
<path d="" fill="#F5F5F5" transform="translate(0,0)"/>
<path d="" fill="#B2B2B2" transform="translate(0,0)"/>
<path d="" fill="#F5F5F5" transform="translate(0,0)"/>
<path d="" fill="#D8D8D8" transform="translate(0,0)"/>
<path d="" fill="#B2B2B2" transform="translate(0,0)"/>
<path d="" fill="#D8D8D8" transform="translate(0,0)"/>
<path d="" fill="#D8D8D8" transform="translate(0,0)"/>
<path d="" fill="#B2B2B2" transform="translate(0,0)"/>
<path d="" fill="#F8F8F8" transform="translate(0,0)"/>
<path d="" fill="#B2B2B2" transform="translate(0,0)"/>
<path d="" fill="#B2B2B2" transform="translate(0,0)"/>
<path d="" fill="#D8D8D8" transform="translate(0,0)"/>
<path d="" fill="#B2B2B2" transform="translate(0,0)"/>
<path d="" fill="#B2B2B2" transform="translate(0,0)"/>
<path d="" fill="#B2B2B2" transform="translate(0,0)"/>
<path d="" fill="#B2B2B2" transform="translate(0,0)"/>
<path d="" fill="#F8F8F8" transform="translate(0,0)"/>
<path d="" fill="#B2B2B2" transform="translate(0,0)"/>
<path d="" fill="#D8D8D8" transform="translate(0,0)"/>
<path d="" fill="#F8F8F8" transform="translate(0,0)"/>
<path d="" fill="#B2B2B2" transform="translate(0,0)"/>
<path d="" fill="#F8F8F8" transform="translate(0,0)"/>
<path d="" fill="#F8F8F8" transform="translate(0,0)"/>
<path d="" fill="#B2B2B2" transform="translate(0,0)"/>
<path d="" fill="#B2B2B2" transform="translate(0,0)"/>
<path d="" fill="#B2B2B2" transform="translate(0,0)"/>
<path d="" fill="#B2B2B2" transform="translate(0,0)"/>
<path d="" fill="#D2D2D2" transform="translate(0,0)"/>
<path d="" fill="#F8F8F8" transform="translate(0,0)"/>
<path d="" fill="#F8F8F8" transform="translate(0,0)"/>
<path d="" fill="#F8F8F8" transform="translate(0,0)"/>
<path d="" fill="#B2B2B2" transform="translate(0,0)"/>
<path d="" fill="#F8F8F8" transform="translate(0,0)"/>
<path d="" fill="#B2B2B2" transform="translate(0,0)"/>
<path d="" fill="#F8F8F8" transform="translate(0,0)"/>
<path d="" fill="#B2B2B2" transform="translate(0,0)"/>
<path d="" fill="#F8F8F8" transform="translate(0,0)"/>
</svg>
